<svg aria-hidden="true" style="position: absolute; width: 0; height: 0; overflow: hidden;" version="1.1"
	xmlns="http://www.w3.org/2000/svg"
	xmlns:xlink="http://www.w3.org/1999/xlink">
	<defs>
		<symbol id="linux" viewBox="0 0 25 28">
			<path d="M220.8 123.3c1 .5 1.8 1.7 3 1.7 1.1 0 2.8-.4 2.9-1.5.2-1.4-1.9-2.3-3.2-2.9-1.7-.7-3.9-1-5.5-.1-.4.2-.8.7-.6 1.1.3 1.3 2.3 1.1 3.4 1.7zm-21.9 1.7c1.2 0 2-1.2 3-1.7 1.1-.6 3.1-.4 3.5-1.6.2-.4-.2-.9-.6-1.1-1.6-.9-3.8-.6-5.5.1-1.3.6-3.4 1.5-3.2 2.9.1 1 1.8 1.5 2.8 1.4zM420 403.8c-3.6-4-5.3-11.6-7.2-19.7-1.8-8.1-3.9-16.8-10.5-22.4-1.3-1.1-2.6-2.1-4-2.9-1.3-.8-2.7-1.5-4.1-2 9.2-27.3 5.6-54.5-3.7-79.1-11.4-30.1-31.3-56.4-46.5-74.4-17.1-21.5-33.7-41.9-33.4-72C311.1 85.4 315.7.1 234.8 0 132.4-.2 158 103.4 156.9 135.2c-1.7 23.4-6.4 41.8-22.5 64.7-18.9 22.5-45.5 58.8-58.1 96.7-6 17.9-8.8 36.1-6.2 53.3-6.5 5.8-11.4 14.7-16.6 20.2-4.2 4.3-10.3 5.9-17 8.3s-14 6-18.5 14.5c-2.1 3.9-2.8 8.1-2.8 12.4 0 3.9.6 7.9 1.2 11.8 1.2 8.1 2.5 15.7.8 20.8-5.2 14.4-5.9 24.4-2.2 31.7 3.8 7.3 11.4 10.5 20.1 12.3 17.3 3.6 40.8 2.7 59.3 12.5 19.8 10.4 39.9 14.1 55.9 10.4 11.6-2.6 21.1-9.6 25.9-20.2 12.5-.1 26.3-5.4 48.3-6.6 14.9-1.2 33.6 5.3 55.1 4.1.6 2.3 1.4 4.6 2.5 6.7v.1c8.3 16.7 23.8 24.3 40.3 23 16.6-1.3 34.1-11 48.3-27.9 13.6-16.4 36-23.2 50.9-32.2 7.4-4.5 13.4-10.1 13.9-18.3.4-8.2-4.4-17.3-15.5-29.7zM223.7 87.3c9.8-22.2 34.2-21.8 44-.4 6.5 14.2 3.6 30.9-4.3 40.4-1.6-.8-5.9-2.6-12.6-4.9 1.1-1.2 3.1-2.7 3.9-4.6 4.8-11.8-.2-27-9.1-27.3-7.3-.5-13.9 10.8-11.8 23-4.1-2-9.4-3.5-13-4.4-1-6.9-.3-14.6 2.9-21.8zM183 75.8c10.1 0 20.8 14.2 19.1 33.5-3.5 1-7.1 2.5-10.2 4.6 1.2-8.9-3.3-20.1-9.6-19.6-8.4.7-9.8 21.2-1.8 28.1 1 .8 1.9-.2-5.9 5.5-15.6-14.6-10.5-52.1 8.4-52.1zm-13.6 60.7c6.2-4.6 13.6-10 14.1-10.5 4.7-4.4 13.5-14.2 27.9-14.2 7.1 0 15.6 2.3 25.9 8.9 6.3 4.1 11.3 4.4 22.6 9.3 8.4 3.5 13.7 9.7 10.5 18.2-2.6 7.1-11 14.4-22.7 18.1-11.1 3.6-19.8 16-38.2 14.9-3.9-.2-7-1-9.6-2.1-8-3.5-12.2-10.4-20-15-8.6-4.8-13.2-10.4-14.7-15.3-1.4-4.9 0-9 4.2-12.3zm3.3 334c-2.7 35.1-43.9 34.4-75.3 18-29.9-15.8-68.6-6.5-76.5-21.9-2.4-4.7-2.4-12.7 2.6-26.4v-.2c2.4-7.6.6-16-.6-23.9-1.2-7.8-1.8-15 .9-20 3.5-6.7 8.5-9.1 14.8-11.3 10.3-3.7 11.8-3.4 19.6-9.9 5.5-5.7 9.5-12.9 14.3-18 5.1-5.5 10-8.1 17.7-6.9 8.1 1.2 15.1 6.8 21.9 16l19.6 35.6c9.5 19.9 43.1 48.4 41 68.9zm-1.4-25.9c-4.1-6.6-9.6-13.6-14.4-19.6 7.1 0 14.2-2.2 16.7-8.9 2.3-6.2 0-14.9-7.4-24.9-13.5-18.2-38.3-32.5-38.3-32.5-13.5-8.4-21.1-18.7-24.6-29.9s-3-23.3-.3-35.2c5.2-22.9 18.6-45.2 27.2-59.2 2.3-1.7.8 3.2-8.7 20.8-8.5 16.1-24.4 53.3-2.6 82.4.6-20.7 5.5-41.8 13.8-61.5 12-27.4 37.3-74.9 39.3-112.7 1.1.8 4.6 3.2 6.2 4.1 4.6 2.7 8.1 6.7 12.6 10.3 12.4 10 28.5 9.2 42.4 1.2 6.2-3.5 11.2-7.5 15.9-9 9.9-3.1 17.8-8.6 22.3-15 7.7 30.4 25.7 74.3 37.2 95.7 6.1 11.4 18.3 35.5 23.6 64.6 3.3-.1 7 .4 10.9 1.4 13.8-35.7-11.7-74.2-23.3-84.9-4.7-4.6-4.9-6.6-2.6-6.5 12.6 11.2 29.2 33.7 35.2 59 2.8 11.6 3.3 23.7.4 35.7 16.4 6.8 35.9 17.9 30.7 34.8-2.2-.1-3.2 0-4.2 0 3.2-10.1-3.9-17.6-22.8-26.1-19.6-8.6-36-8.6-38.3 12.5-12.1 4.2-18.3 14.7-21.4 27.3-2.8 11.2-3.6 24.7-4.4 39.9-.5 7.7-3.6 18-6.8 29-32.1 22.9-76.7 32.9-114.3 7.2zm257.4-11.5c-.9 16.8-41.2 19.9-63.2 46.5-13.2 15.7-29.4 24.4-43.6 25.5s-26.5-4.8-33.7-19.3c-4.7-11.1-2.4-23.1 1.1-36.3 3.7-14.2 9.2-28.8 9.9-40.6.8-15.2 1.7-28.5 4.2-38.7 2.6-10.3 6.6-17.2 13.7-21.1.3-.2.7-.3 1-.5.8 13.2 7.3 26.6 18.8 29.5 12.6 3.3 30.7-7.5 38.4-16.3 9-.3 15.7-.9 22.6 5.1 9.9 8.5 7.1 30.3 17.1 41.6 10.6 11.6 14 19.5 13.7 24.6zM173.3 148.7c2 1.9 4.7 4.5 8 7.1 6.6 5.2 15.8 10.6 27.3 10.6 11.6 0 22.5-5.9 31.8-10.8 4.9-2.6 10.9-7 14.8-10.4s5.9-6.3 3.1-6.6-2.6 2.6-6 5.1c-4.4 3.2-9.7 7.4-13.9 9.8-7.4 4.2-19.5 10.2-29.9 10.2s-18.7-4.8-24.9-9.7c-3.1-2.5-5.7-5-7.7-6.9-1.5-1.4-1.9-4.6-4.3-4.9-1.4-.1-1.8 3.7 1.7 6.5z"/>
		</symbol>
		<symbol id="ae" viewBox="0 0 24 24">
			<path fill="#9999FF" style="fill: var(--color2, #9999FF)" d="m8.54 10.73-.29-.92-.27-.89-.22-.78h-.02c-.09.43-.2.86-.34 1.29l-.46 1.48c-.13.51-.29.98-.44 1.4h2.54a30.12 30.12 0 0 1-.5-1.58zm8.58-.29a1.4 1.4 0 0 0-1.33.76c-.12.23-.19.47-.22.72h2.1l.58-.01a.49.49 0 0 0 .23-.08v-.1a1.32 1.32 0 0 0-1.36-1.29zM19.75.3H4.25A4.25 4.25 0 0 0 0 4.55v14.9c0 2.35 1.9 4.25 4.25 4.25h15.5c2.35 0 4.25-1.9 4.25-4.25V4.55C24 2.2 22.1.3 19.75.3zm-7.04 16.51h-2.09c-.07.01-.14-.04-.16-.1l-.82-2.4H5.92l-.76 2.35a.18.18 0 0 1-.19.14H3.09c-.11 0-.14-.06-.11-.18L6.2 7.4l.1-.31c.04-.21.06-.43.06-.65-.01-.05.03-.1.08-.11h2.59c.07 0 .12.03.13.08l3.65 10.25c.03.11 0 .16-.1.16zm7.85-3.99-.04.42c-.01.07-.07.13-.14.13l-.33.02c-.16.02-.35.03-.58.03-.23 0-.47-.04-.73-.04h-3.17c.04.31.14.62.31.89.18.27.43.48.73.6.4.17.84.26 1.28.25a6.1 6.1 0 0 0 1.93-.34c.05-.04.08-.02.08.08v1.53c0 .04 0 .08-.02.12a.24.24 0 0 1-.07.07c-.32.14-.65.24-1 .3-.47.1-.94.13-1.42.12-.76 0-1.4-.12-1.92-.35a3.4 3.4 0 0 1-1.26-.95 3.69 3.69 0 0 1-.69-1.3 5.11 5.11 0 0 1 .04-3.06c.16-.5.41-.96.75-1.37.33-.4.74-.72 1.21-.95a3.78 3.78 0 0 1 1.67-.31c.53-.01 1.06.09 1.55.31.41.18.77.45 1.05.8a3.68 3.68 0 0 1 .79 2.36l-.02.64z"/>
		</symbol>
		<symbol id="au" viewBox="0 0 24 24">
			<path fill="#9999FF" style="fill: var(--color2, #9999FF)" d="M19.75.3H4.25C1.9.3 0 2.2 0 4.55v14.9c0 2.35 1.9 4.25 4.25 4.25h15.5c2.35 0 4.25-1.9 4.25-4.25V4.55C24 2.2 22.1.3 19.75.3zM12.5 16.8h-2.09c-.07.011-.14-.04-.16-.11l-.82-2.39H5.71l-.76 2.36c-.02.09-.1.15-.19.14H2.88c-.11 0-.14-.06-.11-.18l3.22-9.24c.03-.1.06-.21.1-.33.05-.21.08-.42.08-.64-.01-.05.03-.1.08-.11h2.59c.07 0 .12.03.13.08l3.63 10.261c.03.109 0 .159-.1.159zm7.75.011h-1.721c-.079.01-.159-.041-.189-.11-.02-.08-.04-.171-.061-.25-.02-.07-.02-.14-.02-.21-.32.289-.71.5-1.13.619-.36.101-.739.15-1.11.15-.369 0-.74-.05-1.09-.17-.32-.109-.619-.3-.85-.55-.26-.28-.45-.61-.561-.97-.14-.461-.209-.94-.199-1.42V8.94c-.01-.06.029-.12.1-.13h1.939c.061-.01.121.03.131.1v4.731c0 .439.1.789.289 1.039.191.25.58.381 1.031.381.229 0 .459-.041.68-.121.23-.08.439-.189.63-.33V8.92c0-.07.05-.11.14-.11h1.91c.051-.01.109.03.109.08v6.16c0 .271 0 .511.011.72.01.211.021.391.03.551.02.16.029.25.039.359.012.09-.028.131-.108.131zM8.33 10.73c-.1-.31-.19-.61-.29-.92s-.19-.6-.27-.89c-.08-.28-.15-.54-.22-.78h-.02c-.09.43-.2.86-.34 1.29-.15.48-.3.98-.46 1.48-.13.51-.29.98-.44 1.4h2.54c-.06-.21-.14-.46-.23-.72-.09-.27-.18-.56-.27-.86z"/>
		</symbol>
		<symbol id="ai" viewBox="0 0 24 24">
			<path fill="#FF9A00" style="fill: var(--color3, #FF9A00)" d="M10.53 10.73c-.1-.31-.19-.61-.29-.92-.1-.31-.19-.6-.27-.89-.08-.28-.15-.54-.22-.78h-.02c-.09.43-.2.86-.34 1.29-.15.48-.3.98-.46 1.48-.14.51-.29.98-.44 1.4h2.54c-.06-.211-.14-.46-.23-.721-.09-.269-.18-.559-.27-.859zM19.75.3H4.25C1.9.3 0 2.2 0 4.55v14.9c0 2.35 1.9 4.25 4.25 4.25h15.5c2.35 0 4.25-1.9 4.25-4.25V4.55C24 2.2 22.1.3 19.75.3zM14.7 16.83h-2.091c-.069.01-.139-.04-.159-.11l-.82-2.38H7.91l-.76 2.35c-.02.09-.1.15-.19.141H5.08c-.11 0-.14-.061-.11-.18L8.19 7.38c.03-.1.06-.21.1-.33.04-.21.06-.43.06-.65-.01-.05.03-.1.08-.11h2.59c.08 0 .12.03.13.08l3.65 10.3c.03.109 0 .16-.1.16zm3.4-.15c0 .11-.039.16-.129.16H16.01c-.1 0-.15-.061-.15-.16v-7.7c0-.1.041-.14.131-.14h1.98c.09 0 .129.05.129.14v7.7zm-.209-9.03c-.231.24-.571.37-.911.35-.33.01-.65-.12-.891-.35-.23-.25-.35-.58-.34-.92-.01-.34.12-.66.359-.89.242-.23.562-.35.892-.35.391 0 .689.12.91.35.22.24.34.56.33.89.01.34-.11.67-.349.92z"/>
		</symbol>
		<symbol id="id" viewBox="0 0 24 24">
			<path fill="#FF3366" style="fill: var(--color4, #FF3366)" d="M4.25.3C1.9.3 0 2.2 0 4.55v14.9c0 2.35 1.9 4.25 4.25 4.25h15.5c2.35 0 4.25-1.9 4.25-4.25V4.55C24 2.2 22.1.3 19.75.3zm11.31 5.13h2.03c.05-.01.09.03.1.07v9.54c0 .18.01.38.02.6.02.21.03.41.04.58 0 .07-.03.13-.1.16-.52.22-1.07.38-1.63.48-.5.09-1.02.14-1.54.14-.74.01-1.48-.14-2.15-.45-.63-.29-1.15-.77-1.51-1.36-.37-.61-.55-1.37-.55-2.28-.01-.74.18-1.47.55-2.11.38-.65.93-1.19 1.59-1.55.7-.39 1.54-.58 2.53-.58.05 0 .12 0 .21.01s.19.01.31.02V5.54c0-.07.03-.11.1-.11zm-8.93.86h1.95c.06-.01.12.03.13.1.01.01.01.02.01.03v10.26c0 .11-.05.16-.14.16H6.62c-.09 0-.13-.05-.13-.16V6.42c0-.09.05-.13.14-.13zm8.23 4.24c-.39 0-.78.08-1.13.26-.34.17-.63.42-.85.74-.22.32-.33.75-.33 1.27-.01.35.05.7.17 1.03.1.27.25.51.45.71.19.18.42.32.68.4.27.09.55.13.83.13.15 0 .29-.01.42-.02.13.01.25-.01.36-.05v-4.4c-.09-.02-.18-.04-.27-.05-.11-.01-.22-.02-.33-.02z"/>
		</symbol>
		<symbol id="lr" viewBox="0 0 24 24">
			<path fill="#31A8FF" style="fill: var(--color5, #31A8FF)" d="M19.75.3H4.25C1.9.3 0 2.2 0 4.55v14.9c0 2.35 1.9 4.25 4.25 4.25h15.5c2.35 0 4.25-1.9 4.25-4.25V4.55C24 2.2 22.1.3 19.75.3zM8.57 16.689c-.01.061-.03.101-.06.121-.03.02-.06.029-.09.029H2.71c-.1 0-.14-.061-.14-.18V6.44c0-.1.04-.14.13-.14h1.77c.07 0 .1.04.1.11v8.4h4.16c.09 0 .12.049.1.14l-.26 1.739zm5.6-5.919c0 .08-.05.11-.141.11-.319-.02-.639 0-.949.07-.26.06-.51.15-.75.27-.18.09-.35.22-.49.37v5.1c0 .101-.04.141-.12.141H9.98c-.1 0-.14-.051-.14-.16v-5.54c0-.24 0-.49-.01-.75 0-.26-.01-.52-.02-.78-.01-.221-.03-.441-.06-.661 0-.03 0-.06.02-.09.03-.01.05-.02.08-.01h1.58c.09 0 .15.05.19.16.03.07.06.15.07.23.02.1.03.21.04.31.01.11.01.23.01.36.26-.34.59-.64.96-.86.399-.24.87-.37 1.34-.36.09 0 .13.05.13.14v1.95zm7.2-1.61c.01.06-.021.11-.06.15-.041.02-.09.02-.131 0-.229-.12-.47-.2-.72-.24-.31-.06-.63-.08-.94-.08-.51-.01-1.02.12-1.459.38-.41.25-.73.62-.94 1.05-.229.5-.341 1.05-.33 1.6-.011.4.05.791.16 1.169.1.311.25.601.44.86.17.229.379.431.629.58.24.14.49.25.76.32.25.069.521.11.781.11.289 0 .58-.011.869-.041.24-.029.48-.09.7-.17.08-.06.13-.029.16-.01.04.04.06.1.05.15v1.49c.01.119-.05.22-.15.27-.26.1-.529.17-.81.2-.339.052-.679.072-1.029.072-.49 0-.99-.069-1.459-.199-.461-.12-.891-.33-1.271-.6-.38-.271-.71-.601-.979-.99-.291-.42-.5-.881-.641-1.371-.15-.58-.23-1.17-.221-1.759 0-.98.191-1.86.58-2.6.381-.73.951-1.34 1.66-1.75.711-.41 1.57-.62 2.551-.62.34 0 .68.02 1.02.06.23.03.46.08.67.17.08.05.12.14.11.24V9.16z"/>
		</symbol>
		<symbol id="ps" viewBox="0 0 24 24">
			<path fill="#31A8FF" style="fill: var(--color6, #31A8FF)" d="M9.85 8.42c-.37-.15-.77-.21-1.18-.2-.26 0-.49 0-.68.01-.2-.01-.34 0-.41.01v3.36c.14.01.27.02.39.02h.53c.39 0 .78-.06 1.15-.18.32-.09.6-.28.82-.53.21-.25.31-.59.31-1.03.01-.31-.07-.62-.23-.89-.17-.26-.41-.46-.7-.57zM19.75.3H4.25C1.9.3 0 2.2 0 4.55v14.899c0 2.35 1.9 4.25 4.25 4.25h15.5c2.35 0 4.25-1.9 4.25-4.25V4.55C24 2.2 22.1.3 19.75.3zm-7.391 11.65c-.399.56-.959.98-1.609 1.22-.68.25-1.43.34-2.25.34-.24 0-.4 0-.5-.01s-.24-.01-.43-.01v3.209c.01.07-.04.131-.11.141H5.52c-.08 0-.12-.041-.12-.131V6.42c0-.07.03-.11.1-.11.17 0 .33 0 .56-.01.24-.01.49-.01.76-.02s.56-.01.87-.02c.31-.01.61-.01.91-.01.82 0 1.5.1 2.06.31.5.17.96.45 1.34.82.32.32.57.71.73 1.14.149.42.229.85.229 1.3.001.86-.199 1.57-.6 2.13zm7.091 3.89c-.28.4-.671.709-1.12.891-.49.209-1.09.318-1.811.318-.459 0-.91-.039-1.359-.129-.35-.061-.7-.17-1.02-.32-.07-.039-.121-.109-.111-.189v-1.74c0-.029.011-.07.041-.09.029-.02.06-.01.09.01.39.23.8.391 1.24.49.379.1.779.15 1.18.15.38 0 .65-.051.83-.141.16-.07.27-.24.27-.42 0-.141-.08-.27-.24-.4-.16-.129-.489-.279-.979-.471-.51-.18-.979-.42-1.42-.719-.31-.221-.569-.51-.761-.85-.159-.32-.239-.67-.229-1.021 0-.43.12-.84.341-1.21.25-.4.619-.72 1.049-.92.469-.239 1.059-.349 1.769-.349.41 0 .83.03 1.24.09.3.04.59.12.86.23.039.01.08.05.1.09.01.04.02.08.02.12v1.63c0 .04-.02.08-.05.1-.09.02-.14.02-.18 0-.3-.16-.62-.27-.96-.34-.37-.08-.74-.13-1.12-.13-.2-.01-.41.02-.601.07-.129.03-.24.1-.31.2-.05.08-.08.18-.08.27s.04.18.101.26c.09.11.209.2.34.27.229.12.47.23.709.33.541.18 1.061.43 1.541.73.33.209.6.49.789.83.16.318.24.67.23 1.029.011.471-.129.94-.389 1.331z"/>
		</symbol>
		<symbol id="pr" viewBox="0 0 24 24">
			<path fill="#9999FF" style="fill: var(--color6, #9999FF)" d="M10.15 8.42a2.93 2.93 0 00-1.18-.2 13.9 13.9 0 00-1.09.02v3.36l.39.02h.53c.39 0 .78-.06 1.15-.18.32-.09.6-.28.82-.53.21-.25.31-.59.31-1.03a1.45 1.45 0 00-.93-1.46zM19.75.3H4.25A4.25 4.25 0 000 4.55v14.9c0 2.35 1.9 4.25 4.25 4.25h15.5c2.35 0 4.25-1.9 4.25-4.25V4.55C24 2.2 22.1.3 19.75.3zm-7.09 11.65c-.4.56-.96.98-1.61 1.22-.68.25-1.43.34-2.25.34l-.5-.01-.43-.01v3.21a.12.12 0 01-.11.14H5.82c-.08 0-.12-.04-.12-.13V6.42c0-.07.03-.11.1-.11l.56-.01.76-.02.87-.02.91-.01c.82 0 1.5.1 2.06.31.5.17.96.45 1.34.82.32.32.57.71.73 1.14.15.42.23.85.23 1.3 0 .86-.2 1.57-.6 2.13zm6.82-3.15v1.95c0 .08-.05.11-.16.11a4.35 4.35 0 00-1.92.37c-.19.09-.37.21-.51.37v5.1c0 .1-.04.14-.13.14h-1.97a.14.14 0 01-.16-.12v-5.58l-.01-.75-.02-.78c0-.23-.02-.45-.04-.68a.1.1 0 01.07-.11h1.78c.1 0 .18.07.2.16a3.03 3.03 0 01.13.92c.3-.35.67-.64 1.08-.86a3.1 3.1 0 011.52-.39c.07-.01.13.04.14.11v.04z"/>
		</symbol>
		<symbol id="android" viewBox="0 0 32 32">
			<path fill="#3ddc84" style="fill: var(--color8, #3ddc84)" d="M32 25.333h-32c0.344-3.051 1.396-5.801 2.988-8.158l-0.041 0.064c1.261-1.929 2.896-3.509 4.813-4.669l0.613-0.344-2.693-4.547c-0.062-0.101-0.099-0.223-0.099-0.353 0-0.244 0.129-0.459 0.323-0.579l0.003-0.002c0.098-0.059 0.216-0.094 0.342-0.094 0.246 0 0.461 0.133 0.576 0.331l0.002 0.003 2.773 4.667c1.849-0.76 3.995-1.201 6.244-1.201 0.074 0 0.147 0 0.221 0.001l-0.011-0c0.059-0.001 0.129-0.001 0.198-0.001 2.212 0 4.32 0.441 6.243 1.241l-0.108-0.040 2.76-4.667c0.118-0.199 0.331-0.331 0.576-0.331 0.133 0 0.256 0.039 0.36 0.106l-0.003-0.002c0.191 0.123 0.316 0.334 0.316 0.574 0 0.133-0.038 0.257-0.104 0.362l0.002-0.003-2.693 4.56 0.667 0.373c1.972 1.241 3.594 2.859 4.803 4.765l0.037 0.062c1.464 2.247 2.488 4.913 2.882 7.779l0.011 0.101zM22 19.36c0 0.736 0.597 1.333 1.333 1.333v0c0.736 0 1.333-0.597 1.333-1.333v0c0-0.736-0.597-1.333-1.333-1.333v0c-0.736 0-1.333 0.597-1.333 1.333v0zM7.333 19.36c0 0.736 0.597 1.333 1.333 1.333v0c0.736 0 1.333-0.597 1.333-1.333v0c0-0.736-0.597-1.333-1.333-1.333v0c-0.736 0-1.333 0.597-1.333 1.333v0z"></path>
		</symbol>
		<symbol id="docker" viewBox="0 0 32 32">
			<path fill="#1488c6" style="fill: var(--color9, #1488c6)" d="M6.427 23.033c-0.912 0-1.739-0.747-1.739-1.653s0.747-1.657 1.74-1.657c0.997 0 1.747 0.747 1.747 1.656s-0.829 1.653-1.748 1.655zM27.776 14.016c-0.18-1.323-1-2.4-2.080-3.227l-0.42-0.333-0.339 0.413c-0.659 0.747-0.92 2.071-0.84 3.060 0.080 0.749 0.32 1.493 0.739 2.072-0.339 0.173-0.757 0.333-1.080 0.503-0.76 0.249-1.499 0.333-2.24 0.333h-21.387l-0.080 0.493c-0.16 1.576 0.080 3.227 0.749 4.72l0.325 0.58v0.080c2 3.311 5.56 4.8 9.437 4.8 7.459 0 13.576-3.227 16.476-10.177 1.9 0.083 3.819-0.413 4.72-2.235l0.24-0.413-0.4-0.249c-1.080-0.659-2.56-0.747-3.8-0.413zM17.099 12.693h-3.237v3.227h3.24v-3.229zM17.099 8.636h-3.237v3.227h3.24v-3.223zM17.099 4.497h-3.237v3.227h3.24v-3.227zM21.059 12.693h-3.219v3.227h3.227v-3.229zM9.061 12.693h-3.217v3.227h3.229v-3.229zM13.101 12.693h-3.2v3.227h3.219v-3.229zM5.061 12.693h-3.195v3.227h3.237v-3.229zM13.101 8.636h-3.2v3.227h3.219v-3.223zM9.041 8.636h-3.192v3.227h3.217v-3.223z"></path>
		</symbol>
		<symbol id="git" viewBox="0 0 32 32">
			<path fill="#f05032" style="fill: var(--color10, #f05032)" d="M31.395 14.573l-13.972-13.971c-0.805-0.804-2.109-0.804-2.917 0l-2.895 2.9 3.68 3.68c0.86-0.287 1.839-0.093 2.519 0.588 0.688 0.687 0.877 1.677 0.584 2.533l3.544 3.547c0.86-0.297 1.849-0.104 2.533 0.58 0.961 0.96 0.961 2.512 0 3.472-0.959 0.959-2.508 0.959-3.467 0-0.719-0.721-0.899-1.783-0.539-2.661l-3.319-3.301v8.7c0.235 0.115 0.456 0.271 0.651 0.464 0.951 0.961 0.951 2.511 0 3.467-0.959 0.961-2.519 0.961-3.479 0-0.959-0.959-0.959-2.505 0-3.464 0.243-0.24 0.516-0.421 0.807-0.541v-8.785c-0.289-0.121-0.565-0.296-0.8-0.535-0.727-0.727-0.901-1.789-0.528-2.679l-3.616-3.633-9.581 9.575c-0.8 0.807-0.8 2.112 0 2.919l13.973 13.969c0.805 0.805 2.109 0.805 2.915 0l13.907-13.907c0.807-0.804 0.807-2.109 0-2.916z"></path>
		</symbol>
		<symbol id="gitea" viewBox="0 0 32 32">
			<path fill="#609926" style="fill: var(--color11, #609926)" d="M5.581 7.228c-2.46-0.005-5.755 1.559-5.573 5.48 0.284 6.125 6.56 6.693 9.068 6.743 0.275 1.149 3.227 5.112 5.412 5.32h9.573c5.741-0.381 10.040-17.363 6.853-17.427-5.271 0.248-8.395 0.373-11.073 0.395v5.3l-0.835-0.369-0.005-4.928c-3.075-0.001-5.781-0.144-10.919-0.397-0.643-0.004-1.539-0.113-2.501-0.116zM5.929 9.395h0.293c0.349 3.14 0.917 4.976 2.067 7.781-2.933-0.347-5.429-1.199-5.888-4.38-0.237-1.647 0.563-3.365 3.528-3.401zM17.339 12.481c0.2 0.003 0.404 0.040 0.596 0.128l0.999 0.431-0.716 1.305c-0.002 0-0.004-0-0.007-0-0.113 0-0.221 0.019-0.321 0.053l0.006-0.002c-0.349 0.114-0.593 0.406-0.593 0.749 0 0.097 0.019 0.189 0.055 0.275l-0.002-0.006c0.037 0.089 0.088 0.166 0.151 0.233l-0.001-0.001-1.235 2.248c-0.107 0.002-0.208 0.020-0.302 0.052l0.006-0.002c-0.349 0.114-0.593 0.406-0.593 0.749 0 0.097 0.019 0.189 0.055 0.275l-0.002-0.006c0.128 0.31 0.457 0.527 0.843 0.527 0.109 0 0.213-0.017 0.31-0.049l-0.006 0.002c0.348-0.114 0.592-0.406 0.592-0.749 0-0.097-0.020-0.19-0.056-0.277l0.002 0.006c-0.048-0.115-0.119-0.213-0.211-0.293l-0-0 1.203-2.189c0.029 0.003 0.062 0.005 0.095 0.005 0.106 0 0.207-0.016 0.302-0.046l-0.006 0.002c0.109-0.036 0.204-0.087 0.285-0.15l-0.001 0.001c0.464 0.195 0.844 0.353 1.117 0.488 0.411 0.203 0.556 0.337 0.6 0.487 0.044 0.147-0.004 0.429-0.236 0.925-0.173 0.369-0.46 0.893-0.799 1.511-0.006-0-0.013-0-0.020-0-0.113 0-0.222 0.019-0.321 0.053l0.006-0.002c-0.349 0.114-0.593 0.406-0.593 0.749 0 0.097 0.019 0.189 0.055 0.275l-0.002-0.006c0.128 0.31 0.457 0.527 0.843 0.527 0.109 0 0.213-0.017 0.31-0.049l-0.006 0.002c0.348-0.114 0.592-0.406 0.592-0.749 0-0.097-0.019-0.19-0.055-0.275l0.002 0.006c-0.043-0.104-0.105-0.194-0.183-0.27l0.001 0.001c0.335-0.611 0.623-1.136 0.808-1.531 0.251-0.536 0.381-0.935 0.267-1.32s-0.467-0.636-0.933-0.867c-0.307-0.151-0.689-0.311-1.147-0.503 0.001-0.015 0.002-0.033 0.002-0.050 0-0.096-0.019-0.188-0.054-0.274l0.002 0.006c-0.045-0.108-0.11-0.201-0.194-0.279l0 0 0.704-1.284 3.899 1.684c0.704 0.305 0.995 1.053 0.653 1.68l-2.68 4.907c-0.343 0.625-1.184 0.884-1.888 0.58l-5.516-2.384c-0.704-0.304-0.996-1.053-0.653-1.68l2.68-4.905c0.235-0.431 0.707-0.687 1.207-0.707z"></path>
		</symbol>
		<symbol id="github" viewBox="0 0 32 32">
			<path d="M16 0.396c-8.84 0-16 7.164-16 16 0 7.071 4.584 13.067 10.94 15.18 0.8 0.151 1.093-0.344 1.093-0.769 0-0.38-0.013-1.387-0.020-2.72-4.451 0.965-5.389-2.147-5.389-2.147-0.728-1.847-1.78-2.34-1.78-2.34-1.449-0.992 0.112-0.972 0.112-0.972 1.607 0.112 2.451 1.648 2.451 1.648 1.427 2.447 3.745 1.74 4.66 1.331 0.144-1.035 0.556-1.74 1.013-2.14-3.553-0.4-7.288-1.776-7.288-7.907 0-1.747 0.62-3.173 1.647-4.293-0.18-0.404-0.72-2.031 0.14-4.235 0 0 1.34-0.429 4.4 1.64 1.28-0.356 2.64-0.532 4-0.54 1.36 0.008 2.72 0.184 4 0.54 3.040-2.069 4.38-1.64 4.38-1.64 0.86 2.204 0.32 3.831 0.16 4.235 1.020 1.12 1.64 2.547 1.64 4.293 0 6.147-3.74 7.5-7.3 7.893 0.56 0.48 1.080 1.461 1.080 2.96 0 2.141-0.020 3.861-0.020 4.381 0 0.42 0.28 0.92 1.1 0.76 6.401-2.099 10.981-8.099 10.981-15.159 0-8.836-7.164-16-16-16z"></path>
		</symbol>
		<symbol id="gitlab" viewBox="0 0 32 32">
			<path fill="#fca121" style="fill: var(--color12, #fca121)" d="M6.459 1.205c-0.591 0.001-1.092 0.383-1.271 0.913l-0.003 0.009-3.373 10.377c0 0.009-0.007 0.016-0.009 0.027l-1.709 5.248c-0.060 0.177-0.094 0.381-0.094 0.593 0 0.635 0.309 1.198 0.785 1.546l0.005 0.004 14.763 10.727c0.123 0.090 0.277 0.144 0.443 0.144 0.17 0 0.326-0.056 0.452-0.15l-0.002 0.001 14.765-10.72c0.482-0.352 0.791-0.915 0.791-1.55 0-0.213-0.035-0.418-0.099-0.61l0.004 0.014-1.68-5.156c-0.010-0.053-0.025-0.099-0.043-0.143l0.002 0.005-3.368-10.367c-0.184-0.535-0.682-0.912-1.269-0.912-0.003 0-0.005 0-0.008 0h0c-0.003-0-0.007-0-0.010-0-0.585 0-1.082 0.382-1.252 0.911l-0.003 0.009-3.208 9.877h-10.131l-3.213-9.877c-0.173-0.538-0.67-0.92-1.255-0.92-0.001 0-0.002 0-0.002 0h0zM6.451 3.099l2.899 8.904h-5.784zM25.555 3.099l2.891 8.904h-5.789zM11.429 13.512h9.149l-2.867 8.824-1.712 5.255zM4.076 13.519h5.763l4.115 12.667zM22.167 13.519h5.768l-9.883 12.669 3.945-12.144zM2.8 14.349l9.304 11.929-10.424-7.576c-0.103-0.075-0.169-0.195-0.169-0.33 0-0.045 0.007-0.087 0.020-0.128l-0.001 0.003zM29.2 14.349l1.269 3.896c0.013 0.038 0.020 0.081 0.020 0.126 0 0.134-0.065 0.254-0.166 0.328l-0.001 0.001v0.003l-10.427 7.573 0.033-0.047z"></path>
		</symbol>
		<symbol id="googleanalytics" viewBox="0 0 32 32">
			<path fill="#ffc107" style="fill: var(--color13, #ffc107)" d="M29.432 32h-26.905c-1.391 0-2.527-1.137-2.527-2.528v-5.892c0-1.391 1.136-2.528 2.527-2.528h7.58v-8.42c0-1.389 1.136-2.525 2.525-2.525h8.441v-7.54c0-1.407 1.159-2.567 2.565-2.567h5.795c1.407 0 2.567 1.16 2.567 2.568v26.864c0 1.408-1.16 2.568-2.568 2.568z"></path>
		</symbol>
		<symbol id="graphql" viewBox="0 0 32 32">
			<path fill="#e10098" style="fill: var(--color14, #e10098)" d="M18.735 3.668l6.58 3.8c1.088-1.145 2.897-1.191 4.043-0.103 0.197 0.187 0.365 0.401 0.503 0.636 0.785 1.371 0.309 3.119-1.061 3.904-0.232 0.133-0.481 0.233-0.744 0.297v7.599c1.528 0.364 2.472 1.897 2.107 3.425-0.064 0.272-0.169 0.533-0.309 0.775-0.789 1.364-2.535 1.832-3.903 1.043-0.261-0.151-0.5-0.345-0.701-0.572l-6.54 3.776c0.496 1.499-0.317 3.113-1.815 3.608-0.289 0.095-0.589 0.144-0.893 0.144-1.575 0.001-2.852-1.273-2.853-2.848 0-0.273 0.039-0.547 0.117-0.812l-6.581-3.796c-1.088 1.139-2.895 1.183-4.035 0.093-1.139-1.088-1.181-2.895-0.093-4.035 0.377-0.396 0.861-0.675 1.392-0.804l0.001-7.599c-1.533-0.368-2.477-1.911-2.108-3.445 0.063-0.264 0.164-0.519 0.299-0.755 0.789-1.365 2.536-1.832 3.903-1.043 0.236 0.135 0.452 0.304 0.64 0.503l6.584-3.8c-0.448-1.511 0.415-3.096 1.921-3.543 0.263-0.079 0.539-0.117 0.813-0.117 1.575-0.001 2.852 1.272 2.853 2.845 0.001 0.279-0.040 0.557-0.119 0.823zM18.048 4.837c-0.025 0.028-0.049 0.052-0.077 0.077l8.615 14.92c0.035-0.012 0.075-0.021 0.109-0.031v-7.609c-1.527-0.377-2.456-1.923-2.077-3.451 0.008-0.032 0.016-0.065 0.025-0.096zM14.028 4.916l-0.080-0.080-6.595 3.803c0.436 1.513-0.436 3.091-1.948 3.527-0.035 0.011-0.068 0.019-0.101 0.028v7.611l0.112 0.031 8.615-14.92zM16.796 5.592c-0.52 0.149-1.071 0.149-1.589 0l-8.613 14.919c0.392 0.377 0.669 0.86 0.8 1.388h17.215c0.129-0.531 0.409-1.015 0.804-1.392zM18.111 27.228l6.551-3.784c-0.020-0.063-0.036-0.125-0.051-0.189h-17.221l-0.028 0.111 6.585 3.803c0.517-0.539 1.245-0.871 2.053-0.871 0.836 0 1.587 0.359 2.111 0.931z"></path>
		</symbol>
		<symbol id="nodejs" viewBox="0 0 32 32">
			<path fill="#393" style="fill: var(--color15, #393)" d="M15.997 32c-0.428 0-0.855-0.112-1.229-0.329l-3.915-2.316c-0.584-0.327-0.299-0.443-0.107-0.511 0.78-0.271 0.937-0.333 1.771-0.805 0.087-0.049 0.201-0.031 0.291 0.023l3.008 1.785c0.109 0.060 0.263 0.060 0.363 0l11.727-6.768c0.109-0.063 0.179-0.188 0.179-0.317v-13.533c0-0.132-0.071-0.256-0.183-0.323l-11.721-6.763c-0.108-0.063-0.252-0.063-0.361 0l-11.719 6.764c-0.113 0.065-0.185 0.193-0.185 0.321v13.533c0 0.129 0.072 0.252 0.185 0.313l3.212 1.856c1.743 0.872 2.811-0.155 2.811-1.187v-13.361c0-0.189 0.152-0.337 0.341-0.337h1.487c0.185 0 0.34 0.149 0.34 0.337v13.361c0 2.327-1.267 3.66-3.472 3.66-0.677 0-1.212 0-2.701-0.735l-3.077-1.769c-0.76-0.439-1.229-1.26-1.229-2.139v-13.533c0-0.879 0.471-1.7 1.229-2.137l11.727-6.776c0.743-0.42 1.728-0.42 2.464 0l11.725 6.776c0.76 0.439 1.232 1.259 1.232 2.137v13.533c0 0.879-0.472 1.697-1.232 2.139l-11.725 6.771c-0.373 0.217-0.799 0.329-1.233 0.329zM25.465 18.657c0-2.533-1.712-3.208-5.316-3.684-3.641-0.481-4.012-0.731-4.012-1.583 0-0.704 0.313-1.644 3.011-1.644 2.409 0 3.297 0.519 3.663 2.143 0.032 0.153 0.172 0.265 0.329 0.265h1.521c0.095 0 0.184-0.041 0.248-0.108 0.064-0.072 0.099-0.164 0.089-0.261-0.236-2.797-2.095-4.101-5.851-4.101-3.344 0-5.339 1.411-5.339 3.777 0 2.567 1.984 3.276 5.193 3.593 3.84 0.376 4.137 0.937 4.137 1.692 0 1.311-1.052 1.869-3.523 1.869-3.103 0-3.785-0.779-4.015-2.323-0.027-0.165-0.168-0.287-0.337-0.287h-1.516c-0.188 0-0.339 0.149-0.339 0.337 0 1.976 1.075 4.331 6.207 4.331 3.717 0.001 5.848-1.461 5.848-4.017z"></path>
		</symbol>
		<symbol id="npm" viewBox="0 0 32 32">
			<path fill="#cb3837" style="fill: var(--color16, #cb3837)" d="M0 9.779v10.667h8.888v1.776h7.112v-1.776h16v-10.667zM8.888 18.664h-1.776v-5.333h-1.78v5.333h-3.552v-7.108h7.108zM14.221 18.664v1.781h-3.553v-8.889h7.112v7.109h-3.559zM30.223 18.664h-1.773v-5.333h-1.781v5.333h-1.78v-5.333h-1.773v5.333h-3.561v-7.108h10.669zM14.22 13.333h1.78v3.556h-1.78z"></path>
		</symbol>
		<symbol id="react" viewBox="0 0 32 32">
			<path fill="#61dafb" style="fill: var(--color17, #61dafb)" d="M16 13.148c-1.575 0-2.852 1.277-2.852 2.852s1.277 2.852 2.852 2.852v0c1.575 0 2.852-1.277 2.852-2.852s-1.277-2.852-2.852-2.852v0zM8.011 21.673l-0.629-0.16c-4.691-1.185-7.381-3.197-7.381-5.519s2.691-4.333 7.381-5.519l0.629-0.159 0.177 0.624c0.545 1.86 1.163 3.443 1.899 4.957l-0.082-0.186 0.135 0.284-0.135 0.284c-0.656 1.329-1.275 2.912-1.761 4.551l-0.056 0.22zM7.089 11.933c-3.565 1.001-5.753 2.533-5.753 4.061 0 1.527 2.188 3.059 5.753 4.061 0.512-1.62 1.046-2.965 1.662-4.263l-0.086 0.202c-0.531-1.098-1.066-2.443-1.511-3.828l-0.065-0.234zM23.989 21.673l-0.177-0.625c-0.544-1.859-1.162-3.441-1.9-4.954l0.081 0.184-0.135-0.284 0.135-0.284c0.656-1.329 1.275-2.911 1.762-4.55l0.056-0.221 0.177-0.624 0.631 0.159c4.689 1.185 7.38 3.197 7.38 5.52s-2.691 4.333-7.38 5.519zM23.335 15.995c0.64 1.385 1.169 2.747 1.576 4.061 3.567-1.003 5.753-2.535 5.753-4.061 0-1.528-2.188-3.059-5.753-4.061-0.511 1.619-1.045 2.963-1.662 4.262l0.086-0.2zM7.080 11.927l-0.177-0.623c-1.319-4.648-0.919-7.979 1.097-9.141 1.977-1.141 5.152 0.207 8.479 3.621l0.453 0.465-0.453 0.465c-1.146 1.19-2.207 2.482-3.162 3.853l-0.068 0.103-0.18 0.257-0.313 0.027c-1.875 0.151-3.596 0.439-5.264 0.86l0.218-0.047zM9.608 3.087c-0.357 0-0.673 0.077-0.94 0.231-1.325 0.764-1.56 3.42-0.647 7.004 1.21-0.285 2.681-0.521 4.18-0.658l0.131-0.010c0.894-1.264 1.792-2.37 2.756-3.414l-0.020 0.022c-2.080-2.025-4.049-3.175-5.46-3.175zM22.393 30.236c-0.001 0-0.001 0 0 0-1.9 0-4.34-1.431-6.872-4.031l-0.453-0.465 0.453-0.465c1.146-1.19 2.206-2.482 3.16-3.854l0.068-0.103 0.18-0.257 0.312-0.027c1.875-0.15 3.597-0.438 5.267-0.858l-0.218 0.046 0.629-0.159 0.179 0.624c1.316 4.645 0.917 7.977-1.099 9.139-0.449 0.259-0.988 0.411-1.562 0.411-0.016 0-0.031-0-0.047-0l0.002 0zM16.932 25.728c2.080 2.025 4.049 3.175 5.46 3.175h0.001c0.356 0 0.673-0.077 0.939-0.231 1.325-0.764 1.561-3.421 0.647-7.005-1.212 0.286-2.682 0.522-4.182 0.658l-0.13 0.010c-0.893 1.265-1.791 2.371-2.755 3.416l0.020-0.022zM24.92 11.927l-0.629-0.159c-1.453-0.376-3.175-0.664-4.939-0.806l-0.111-0.007-0.312-0.027-0.18-0.257c-1.021-1.474-2.082-2.766-3.237-3.966l0.009 0.010-0.453-0.465 0.453-0.465c3.325-3.413 6.499-4.761 8.479-3.621 2.016 1.163 2.416 4.493 1.099 9.14zM19.667 9.653c1.523 0.139 2.969 0.364 4.312 0.668 0.915-3.584 0.679-6.24-0.647-7.004-1.317-0.761-3.793 0.405-6.4 2.944 0.943 1.022 1.841 2.128 2.666 3.289l0.069 0.103zM9.608 30.236c-0.014 0-0.030 0-0.046 0-0.574 0-1.113-0.152-1.577-0.419l0.015 0.008c-2.016-1.161-2.416-4.492-1.097-9.139l0.176-0.624 0.629 0.159c1.54 0.388 3.239 0.661 5.047 0.812l0.313 0.027 0.179 0.257c1.022 1.475 2.083 2.767 3.239 3.967l-0.010-0.010 0.453 0.465-0.453 0.465c-2.531 2.6-4.971 4.031-6.868 4.031zM8.021 21.667c-0.915 3.584-0.679 6.241 0.647 7.005 1.316 0.751 3.791-0.407 6.4-2.944-0.943-1.022-1.841-2.129-2.667-3.29l-0.069-0.103c-1.629-0.146-3.099-0.382-4.534-0.711l0.224 0.043zM16 22.504c-1.097 0-2.225-0.048-3.355-0.141l-0.313-0.027-0.18-0.257c-0.544-0.768-1.139-1.691-1.697-2.639l-0.103-0.19c-0.452-0.758-0.971-1.732-1.45-2.728l-0.105-0.243-0.133-0.284 0.133-0.284c0.584-1.239 1.102-2.212 1.658-3.161l-0.103 0.191c0.552-0.955 1.159-1.907 1.8-2.829l0.18-0.257 0.313-0.027c1.005-0.090 2.174-0.142 3.355-0.142s2.35 0.052 3.505 0.153l-0.15-0.011 0.312 0.027 0.179 0.257c1.177 1.666 2.294 3.567 3.252 5.56l0.104 0.24 0.135 0.284-0.135 0.284c-1.058 2.232-2.176 4.133-3.439 5.925l0.083-0.125-0.179 0.257-0.312 0.027c-1.129 0.093-2.259 0.141-3.356 0.141zM13.071 21.059c1.973 0.148 3.885 0.148 5.86 0 1.004-1.445 1.978-3.104 2.827-4.836l0.101-0.228c-0.947-1.958-1.922-3.617-3.012-5.19l0.083 0.126c-0.877-0.071-1.898-0.111-2.929-0.111s-2.052 0.040-3.063 0.119l0.134-0.008c-1.008 1.447-1.983 3.106-2.83 4.84l-0.099 0.224c0.951 1.96 1.926 3.619 3.014 5.193l-0.085-0.13z"></path>
		</symbol>
		<symbol id="redux" viewBox="0 0 32 32">
			<path fill="#764abc" style="fill: var(--color18, #764abc)" d="M22.177 22.005c1.159-0.1 2.057-1.12 1.999-2.339-0.061-1.219-1.060-2.197-2.277-2.197h-0.081c-1.257 0.041-2.237 1.099-2.197 2.359 0.040 0.639 0.301 1.159 0.659 1.537-1.397 2.717-3.495 4.715-6.672 6.393-2.137 1.117-4.395 1.539-6.592 1.239-1.837-0.259-3.275-1.080-4.155-2.397-1.317-1.999-1.437-4.155-0.34-6.312 0.801-1.559 1.999-2.697 2.799-3.257-0.2-0.519-0.44-1.397-0.56-2.056-5.915 4.236-5.313 10.028-3.516 12.765 1.339 1.997 4.076 3.275 7.072 3.275 0.799 0 1.639-0.059 2.457-0.259 5.195-0.999 9.129-4.115 11.387-8.709zM29.308 17.011c-3.095-3.636-7.651-5.633-12.845-5.633h-0.68c-0.337-0.739-1.116-1.199-1.996-1.199h-0.060c-1.257 0-2.237 1.080-2.196 2.337 0.040 1.197 1.059 2.197 2.277 2.197h0.099c0.9-0.040 1.679-0.6 1.997-1.399h0.74c3.079 0 5.993 0.899 8.651 2.656 2.036 1.339 3.496 3.096 4.315 5.195 0.717 1.717 0.679 3.396-0.060 4.796-1.139 2.196-3.057 3.356-5.593 3.356-1.599 0-3.156-0.5-3.956-0.859-0.479 0.397-1.279 1.057-1.859 1.457 1.757 0.797 3.536 1.257 5.253 1.257 3.896 0 6.791-2.196 7.891-4.315 1.197-2.397 1.099-6.432-1.959-9.888zM8.653 22.723c0.039 1.199 1.057 2.197 2.277 2.197h0.080c1.279-0.040 2.257-1.097 2.197-2.357 0-1.199-1.039-2.196-2.257-2.196h-0.081c-0.080 0-0.199 0-0.3 0.039-1.657-2.797-2.357-5.795-2.096-9.028 0.159-2.437 0.959-4.556 2.396-6.313 1.199-1.499 3.456-2.239 4.995-2.277 4.315-0.081 6.113 5.295 6.252 7.432l1.997 0.599c-0.46-6.552-4.533-9.989-8.429-9.989-3.656 0-7.031 2.657-8.391 6.553-1.857 5.195-0.639 10.188 1.639 14.184-0.199 0.26-0.319 0.719-0.279 1.157z"></path>
		</symbol>
		<symbol id="visualstudiocode" viewBox="0 0 32 32">
			<path fill="#007acc" style="fill: var(--color19, #007acc)" d="M30.867 3.449l-6.587-3.169c-0.253-0.124-0.55-0.197-0.864-0.197-0.55 0-1.049 0.223-1.409 0.584v0l-12.613 11.507-5.493-4.171c-0.221-0.169-0.501-0.271-0.805-0.271-0.346 0-0.661 0.132-0.897 0.348l-1.762 1.602c-0.269 0.245-0.436 0.596-0.436 0.987s0.167 0.741 0.434 0.984l0.001 0.001 4.764 4.347-4.764 4.347c-0.268 0.245-0.435 0.596-0.435 0.985s0.168 0.742 0.435 0.986l0.001 0.001 1.764 1.601c0.236 0.215 0.551 0.347 0.896 0.347 0.304 0 0.584-0.102 0.808-0.273l-0.003 0.002 5.493-4.171 12.613 11.507c0.36 0.361 0.858 0.584 1.408 0.584 0.314 0 0.611-0.073 0.876-0.203l-0.012 0.005 6.589-3.169c0.675-0.331 1.131-1.013 1.131-1.801 0-0.001 0-0.001 0-0.002v0-21.495c0-0 0-0 0-0 0-0.789-0.457-1.472-1.122-1.797l-0.012-0.005zM24.005 23.264l-9.571-7.264 9.571-7.264z"></path>
		</symbol>
		<symbol id="vuejs" viewBox="0 0 32 32">
			<path fill="#4fc08d" style="fill: var(--color20, #4fc08d)" d="M32 2.147h-13.253l-2.747 4.733-2.747-4.733h-13.253l16 27.707zM16 18.773l-9.12-15.8h5.907l3.213 5.573 3.213-5.573h5.907z"></path>
		</symbol>
		<symbol id="wordpress" viewBox="0 0 32 32">
			<path fill="#21759b" style="fill: var(--color21, #21759b)" d="M28.625 9.1c1.12 2.049 1.757 4.4 1.757 6.9 0 5.305-2.875 9.941-7.151 12.433l4.393-12.703c0.82-2.053 1.093-3.695 1.093-5.152 0-0.54-0.035-1.040-0.093-1.48zM17.984 9.239c0.863-0.040 1.643-0.14 1.643-0.14 0.776-0.1 0.685-1.24-0.089-1.199 0 0-2.34 0.18-3.84 0.18-1.419 0-3.8-0.2-3.8-0.2-0.78-0.040-0.881 1.14-0.1 1.18 0 0 0.72 0.081 1.5 0.12l2.24 6.14-3.16 9.44-5.239-15.56c0.865-0.040 1.645-0.133 1.645-0.133 0.78-0.1 0.688-1.24-0.087-1.195 0 0-2.328 0.184-3.832 0.184-0.267 0-0.584-0.011-0.92-0.020 2.603-3.836 7.035-6.416 12.055-6.416 3.745 0 7.153 1.429 9.715 3.777-0.061-0.004-0.121-0.012-0.188-0.012-1.413 0-2.416 1.231-2.416 2.552 0 1.187 0.684 2.191 1.413 3.375 0.548 0.96 1.187 2.191 1.187 3.969 0 1.22-0.472 2.659-1.095 4.639l-1.433 4.78-5.2-15.48zM16 30.379c-1.412 0-2.775-0.204-4.064-0.583l4.316-12.541 4.42 12.116c0.032 0.071 0.067 0.135 0.104 0.199-1.493 0.524-3.1 0.812-4.776 0.812zM1.615 16c0-2.085 0.448-4.067 1.247-5.853l6.859 18.799c-4.795-2.332-8.104-7.251-8.105-12.945zM16 0c-8.82 0-16 7.18-16 16s7.18 16 16 16 16-7.18 16-16-7.18-16-16-16z"></path>
		</symbol>
	</defs>
</svg>
