<svg aria-hidden="true" style="position: absolute; width: 0; height: 0; overflow: hidden;"
	version="1.1"
	xmlns="http://www.w3.org/2000/svg"
	xmlns:xlink="http://www.w3.org/1999/xlink">
	<defs>
		<symbol id="azure" viewBox="0 0 24 24">
			<path fill="#0078D4" style="fill: #0078D4"
				d="M22.379 23.343a1.62 1.62 0 0 0 1.536-2.14v.002L17.35 1.76A1.62 1.62 0 0 0 15.816.657H8.184A1.62 1.62 0 0 0 6.65 1.76L.086 21.204a1.62 1.62 0 0 0 1.536 2.139h4.741a1.62 1.62 0 0 0 1.535-1.103l.977-2.892 4.947 3.675c.28.208.618.32.966.32m-3.084-12.531 3.624 10.739a.54.54 0 0 1-.51.713v-.001h-.03a.54.54 0 0 1-.322-.106l-9.287-6.9h4.853m6.313 7.006c.116-.326.13-.694.007-1.058L9.79 1.76a1.722 1.722 0 0 0-.007-.02h6.034a.54.54 0 0 1 .512.366l6.562 19.445a.54.54 0 0 1-.338.684" />
		</symbol>
		<symbol id="ae" viewBox="0 0 24 24">
			<rect width="20" height="20" fill="#9999FF" x="2" y="2" />
			<path fill="#00005b" style="fill: #00005b"
				d="m8.54 10.73-.29-.92-.27-.89-.22-.78h-.02c-.09.43-.2.86-.34 1.29l-.46 1.48c-.13.51-.29.98-.44 1.4h2.54a30.12 30.12 0 0 1-.5-1.58zm8.58-.29a1.4 1.4 0 0 0-1.33.76c-.12.23-.19.47-.22.72h2.1l.58-.01a.49.49 0 0 0 .23-.08v-.1a1.32 1.32 0 0 0-1.36-1.29zM19.75.3H4.25A4.25 4.25 0 0 0 0 4.55v14.9c0 2.35 1.9 4.25 4.25 4.25h15.5c2.35 0 4.25-1.9 4.25-4.25V4.55C24 2.2 22.1.3 19.75.3zm-7.04 16.51h-2.09c-.07.01-.14-.04-.16-.1l-.82-2.4H5.92l-.76 2.35a.18.18 0 0 1-.19.14H3.09c-.11 0-.14-.06-.11-.18L6.2 7.4l.1-.31c.04-.21.06-.43.06-.65-.01-.05.03-.1.08-.11h2.59c.07 0 .12.03.13.08l3.65 10.25c.03.11 0 .16-.1.16zm7.85-3.99-.04.42c-.01.07-.07.13-.14.13l-.33.02c-.16.02-.35.03-.58.03-.23 0-.47-.04-.73-.04h-3.17c.04.31.14.62.31.89.18.27.43.48.73.6.4.17.84.26 1.28.25a6.1 6.1 0 0 0 1.93-.34c.05-.04.08-.02.08.08v1.53c0 .04 0 .08-.02.12a.24.24 0 0 1-.07.07c-.32.14-.65.24-1 .3-.47.1-.94.13-1.42.12-.76 0-1.4-.12-1.92-.35a3.4 3.4 0 0 1-1.26-.95 3.69 3.69 0 0 1-.69-1.3 5.11 5.11 0 0 1 .04-3.06c.16-.5.41-.96.75-1.37.33-.4.74-.72 1.21-.95a3.78 3.78 0 0 1 1.67-.31c.53-.01 1.06.09 1.55.31.41.18.77.45 1.05.8a3.68 3.68 0 0 1 .79 2.36l-.02.64z" />
		</symbol>
		<symbol id="au" viewBox="0 0 24 24">
			<rect width="20" height="20" fill="#9999FF" x="2" y="2" />
			<path fill="#00005b" style="fill: #00005b"
				d="M19.75.3H4.25C1.9.3 0 2.2 0 4.55v14.9c0 2.35 1.9 4.25 4.25 4.25h15.5c2.35 0 4.25-1.9 4.25-4.25V4.55C24 2.2 22.1.3 19.75.3zM12.5 16.8h-2.09c-.07.011-.14-.04-.16-.11l-.82-2.39H5.71l-.76 2.36c-.02.09-.1.15-.19.14H2.88c-.11 0-.14-.06-.11-.18l3.22-9.24c.03-.1.06-.21.1-.33.05-.21.08-.42.08-.64-.01-.05.03-.1.08-.11h2.59c.07 0 .12.03.13.08l3.63 10.261c.03.109 0 .159-.1.159zm7.75.011h-1.721c-.079.01-.159-.041-.189-.11-.02-.08-.04-.171-.061-.25-.02-.07-.02-.14-.02-.21-.32.289-.71.5-1.13.619-.36.101-.739.15-1.11.15-.369 0-.74-.05-1.09-.17-.32-.109-.619-.3-.85-.55-.26-.28-.45-.61-.561-.97-.14-.461-.209-.94-.199-1.42V8.94c-.01-.06.029-.12.1-.13h1.939c.061-.01.121.03.131.1v4.731c0 .439.1.789.289 1.039.191.25.58.381 1.031.381.229 0 .459-.041.68-.121.23-.08.439-.189.63-.33V8.92c0-.07.05-.11.14-.11h1.91c.051-.01.109.03.109.08v6.16c0 .271 0 .511.011.72.01.211.021.391.03.551.02.16.029.25.039.359.012.09-.028.131-.108.131zM8.33 10.73c-.1-.31-.19-.61-.29-.92s-.19-.6-.27-.89c-.08-.28-.15-.54-.22-.78h-.02c-.09.43-.2.86-.34 1.29-.15.48-.3.98-.46 1.48-.13.51-.29.98-.44 1.4h2.54c-.06-.21-.14-.46-.23-.72-.09-.27-.18-.56-.27-.86z" />
		</symbol>
		<symbol id="ai" viewBox="0 0 24 24">
			<rect width="20" height="20" fill="#FF9A00" x="2" y="2" />
			<path fill="#300" style="fill: #300"
				d="M10.53 10.73c-.1-.31-.19-.61-.29-.92-.1-.31-.19-.6-.27-.89-.08-.28-.15-.54-.22-.78h-.02c-.09.43-.2.86-.34 1.29-.15.48-.3.98-.46 1.48-.14.51-.29.98-.44 1.4h2.54c-.06-.211-.14-.46-.23-.721-.09-.269-.18-.559-.27-.859zM19.75.3H4.25C1.9.3 0 2.2 0 4.55v14.9c0 2.35 1.9 4.25 4.25 4.25h15.5c2.35 0 4.25-1.9 4.25-4.25V4.55C24 2.2 22.1.3 19.75.3zM14.7 16.83h-2.091c-.069.01-.139-.04-.159-.11l-.82-2.38H7.91l-.76 2.35c-.02.09-.1.15-.19.141H5.08c-.11 0-.14-.061-.11-.18L8.19 7.38c.03-.1.06-.21.1-.33.04-.21.06-.43.06-.65-.01-.05.03-.1.08-.11h2.59c.08 0 .12.03.13.08l3.65 10.3c.03.109 0 .16-.1.16zm3.4-.15c0 .11-.039.16-.129.16H16.01c-.1 0-.15-.061-.15-.16v-7.7c0-.1.041-.14.131-.14h1.98c.09 0 .129.05.129.14v7.7zm-.209-9.03c-.231.24-.571.37-.911.35-.33.01-.65-.12-.891-.35-.23-.25-.35-.58-.34-.92-.01-.34.12-.66.359-.89.242-.23.562-.35.892-.35.391 0 .689.12.91.35.22.24.34.56.33.89.01.34-.11.67-.349.92z" />
		</symbol>
		<symbol id="id" viewBox="0 0 24 24">
			<rect width="20" height="20" fill="#FF3366" x="2" y="2" />
			<path fill="#49021f" style="fill: #49021f"
				d="M4.25.3C1.9.3 0 2.2 0 4.55v14.9c0 2.35 1.9 4.25 4.25 4.25h15.5c2.35 0 4.25-1.9 4.25-4.25V4.55C24 2.2 22.1.3 19.75.3zm11.31 5.13h2.03c.05-.01.09.03.1.07v9.54c0 .18.01.38.02.6.02.21.03.41.04.58 0 .07-.03.13-.1.16-.52.22-1.07.38-1.63.48-.5.09-1.02.14-1.54.14-.74.01-1.48-.14-2.15-.45-.63-.29-1.15-.77-1.51-1.36-.37-.61-.55-1.37-.55-2.28-.01-.74.18-1.47.55-2.11.38-.65.93-1.19 1.59-1.55.7-.39 1.54-.58 2.53-.58.05 0 .12 0 .21.01s.19.01.31.02V5.54c0-.07.03-.11.1-.11zm-8.93.86h1.95c.06-.01.12.03.13.1.01.01.01.02.01.03v10.26c0 .11-.05.16-.14.16H6.62c-.09 0-.13-.05-.13-.16V6.42c0-.09.05-.13.14-.13zm8.23 4.24c-.39 0-.78.08-1.13.26-.34.17-.63.42-.85.74-.22.32-.33.75-.33 1.27-.01.35.05.7.17 1.03.1.27.25.51.45.71.19.18.42.32.68.4.27.09.55.13.83.13.15 0 .29-.01.42-.02.13.01.25-.01.36-.05v-4.4c-.09-.02-.18-.04-.27-.05-.11-.01-.22-.02-.33-.02z" />
		</symbol>
		<symbol id="lr" viewBox="0 0 24 24">
			<rect width="20" height="20" fill="#31A8FF" x="2" y="2" />
			<path fill="#001e36" style="fill: #001e36"
				d="M19.75.3H4.25C1.9.3 0 2.2 0 4.55v14.9c0 2.35 1.9 4.25 4.25 4.25h15.5c2.35 0 4.25-1.9 4.25-4.25V4.55C24 2.2 22.1.3 19.75.3zM8.57 16.689c-.01.061-.03.101-.06.121-.03.02-.06.029-.09.029H2.71c-.1 0-.14-.061-.14-.18V6.44c0-.1.04-.14.13-.14h1.77c.07 0 .1.04.1.11v8.4h4.16c.09 0 .12.049.1.14l-.26 1.739zm5.6-5.919c0 .08-.05.11-.141.11-.319-.02-.639 0-.949.07-.26.06-.51.15-.75.27-.18.09-.35.22-.49.37v5.1c0 .101-.04.141-.12.141H9.98c-.1 0-.14-.051-.14-.16v-5.54c0-.24 0-.49-.01-.75 0-.26-.01-.52-.02-.78-.01-.221-.03-.441-.06-.661 0-.03 0-.06.02-.09.03-.01.05-.02.08-.01h1.58c.09 0 .15.05.19.16.03.07.06.15.07.23.02.1.03.21.04.31.01.11.01.23.01.36.26-.34.59-.64.96-.86.399-.24.87-.37 1.34-.36.09 0 .13.05.13.14v1.95zm7.2-1.61c.01.06-.021.11-.06.15-.041.02-.09.02-.131 0-.229-.12-.47-.2-.72-.24-.31-.06-.63-.08-.94-.08-.51-.01-1.02.12-1.459.38-.41.25-.73.62-.94 1.05-.229.5-.341 1.05-.33 1.6-.011.4.05.791.16 1.169.1.311.25.601.44.86.17.229.379.431.629.58.24.14.49.25.76.32.25.069.521.11.781.11.289 0 .58-.011.869-.041.24-.029.48-.09.7-.17.08-.06.13-.029.16-.01.04.04.06.1.05.15v1.49c.01.119-.05.22-.15.27-.26.1-.529.17-.81.2-.339.052-.679.072-1.029.072-.49 0-.99-.069-1.459-.199-.461-.12-.891-.33-1.271-.6-.38-.271-.71-.601-.979-.99-.291-.42-.5-.881-.641-1.371-.15-.58-.23-1.17-.221-1.759 0-.98.191-1.86.58-2.6.381-.73.951-1.34 1.66-1.75.711-.41 1.57-.62 2.551-.62.34 0 .68.02 1.02.06.23.03.46.08.67.17.08.05.12.14.11.24V9.16z" />
		</symbol>
		<symbol id="ps" viewBox="0 0 24 24">
			<rect width="20" height="20" fill="#31A8FF" x="2" y="2" />
			<path fill="#001e36" style="fill: #001e36"
				d="M9.85 8.42c-.37-.15-.77-.21-1.18-.2-.26 0-.49 0-.68.01-.2-.01-.34 0-.41.01v3.36c.14.01.27.02.39.02h.53c.39 0 .78-.06 1.15-.18.32-.09.6-.28.82-.53.21-.25.31-.59.31-1.03.01-.31-.07-.62-.23-.89-.17-.26-.41-.46-.7-.57zM19.75.3H4.25C1.9.3 0 2.2 0 4.55v14.899c0 2.35 1.9 4.25 4.25 4.25h15.5c2.35 0 4.25-1.9 4.25-4.25V4.55C24 2.2 22.1.3 19.75.3zm-7.391 11.65c-.399.56-.959.98-1.609 1.22-.68.25-1.43.34-2.25.34-.24 0-.4 0-.5-.01s-.24-.01-.43-.01v3.209c.01.07-.04.131-.11.141H5.52c-.08 0-.12-.041-.12-.131V6.42c0-.07.03-.11.1-.11.17 0 .33 0 .56-.01.24-.01.49-.01.76-.02s.56-.01.87-.02c.31-.01.61-.01.91-.01.82 0 1.5.1 2.06.31.5.17.96.45 1.34.82.32.32.57.71.73 1.14.149.42.229.85.229 1.3.001.86-.199 1.57-.6 2.13zm7.091 3.89c-.28.4-.671.709-1.12.891-.49.209-1.09.318-1.811.318-.459 0-.91-.039-1.359-.129-.35-.061-.7-.17-1.02-.32-.07-.039-.121-.109-.111-.189v-1.74c0-.029.011-.07.041-.09.029-.02.06-.01.09.01.39.23.8.391 1.24.49.379.1.779.15 1.18.15.38 0 .65-.051.83-.141.16-.07.27-.24.27-.42 0-.141-.08-.27-.24-.4-.16-.129-.489-.279-.979-.471-.51-.18-.979-.42-1.42-.719-.31-.221-.569-.51-.761-.85-.159-.32-.239-.67-.229-1.021 0-.43.12-.84.341-1.21.25-.4.619-.72 1.049-.92.469-.239 1.059-.349 1.769-.349.41 0 .83.03 1.24.09.3.04.59.12.86.23.039.01.08.05.1.09.01.04.02.08.02.12v1.63c0 .04-.02.08-.05.1-.09.02-.14.02-.18 0-.3-.16-.62-.27-.96-.34-.37-.08-.74-.13-1.12-.13-.2-.01-.41.02-.601.07-.129.03-.24.1-.31.2-.05.08-.08.18-.08.27s.04.18.101.26c.09.11.209.2.34.27.229.12.47.23.709.33.541.18 1.061.43 1.541.73.33.209.6.49.789.83.16.318.24.67.23 1.029.011.471-.129.94-.389 1.331z" />
		</symbol>
		<symbol id="pr" viewBox="0 0 24 24">
			<rect width="20" height="20" fill="#9999FF" x="2" y="2" />
			<path fill="#00005b" style="fill: #00005b"
				d="M10.15 8.42a2.93 2.93 0 00-1.18-.2 13.9 13.9 0 00-1.09.02v3.36l.39.02h.53c.39 0 .78-.06 1.15-.18.32-.09.6-.28.82-.53.21-.25.31-.59.31-1.03a1.45 1.45 0 00-.93-1.46zM19.75.3H4.25A4.25 4.25 0 000 4.55v14.9c0 2.35 1.9 4.25 4.25 4.25h15.5c2.35 0 4.25-1.9 4.25-4.25V4.55C24 2.2 22.1.3 19.75.3zm-7.09 11.65c-.4.56-.96.98-1.61 1.22-.68.25-1.43.34-2.25.34l-.5-.01-.43-.01v3.21a.12.12 0 01-.11.14H5.82c-.08 0-.12-.04-.12-.13V6.42c0-.07.03-.11.1-.11l.56-.01.76-.02.87-.02.91-.01c.82 0 1.5.1 2.06.31.5.17.96.45 1.34.82.32.32.57.71.73 1.14.15.42.23.85.23 1.3 0 .86-.2 1.57-.6 2.13zm6.82-3.15v1.95c0 .08-.05.11-.16.11a4.35 4.35 0 00-1.92.37c-.19.09-.37.21-.51.37v5.1c0 .1-.04.14-.13.14h-1.97a.14.14 0 01-.16-.12v-5.58l-.01-.75-.02-.78c0-.23-.02-.45-.04-.68a.1.1 0 01.07-.11h1.78c.1 0 .18.07.2.16a3.03 3.03 0 01.13.92c.3-.35.67-.64 1.08-.86a3.1 3.1 0 011.52-.39c.07-.01.13.04.14.11v.04z" />
		</symbol>
		<symbol id="android" viewBox="0 0 24 24">
			<path fill="#3ddc84" style="fill: #3ddc84"
				d="M17.523 15.3414c-.5511 0-.9993-.4486-.9993-.9997s.4483-.9993.9993-.9993c.5511 0 .9993.4483.9993.9993.0001.5511-.4482.9997-.9993.9997m-11.046 0c-.5511 0-.9993-.4486-.9993-.9997s.4482-.9993.9993-.9993c.5511 0 .9993.4483.9993.9993 0 .5511-.4483.9997-.9993.9997m11.4045-6.02l1.9973-3.4592a.416.416 0 00-.1521-.5676.416.416 0 00-.5676.1521l-2.0223 3.503C15.5902 8.2439 13.8533 7.8508 12 7.8508s-3.5902.3931-5.1367 1.0989L4.841 5.4467a.4161.4161 0 00-.5677-.1521.4157.4157 0 00-.1521.5676l1.9973 3.4592C2.6889 11.1867.3432 14.6589 0 18.761h24c-.3435-4.1021-2.6892-7.5743-6.1185-9.4396" />
		</symbol>
		<symbol id="docker" viewBox="0 0 24 24">
			<path fill="#1488c6" style="fill: #1488c6"
				d="M13.983 11.078h2.119a.186.186 0 00.186-.185V9.006a.186.186 0 00-.186-.186h-2.119a.185.185 0 00-.185.185v1.888c0 .102.083.185.185.185m-2.954-5.43h2.118a.186.186 0 00.186-.186V3.574a.186.186 0 00-.186-.185h-2.118a.185.185 0 00-.185.185v1.888c0 .102.082.185.185.185m0 2.716h2.118a.187.187 0 00.186-.186V6.29a.186.186 0 00-.186-.185h-2.118a.185.185 0 00-.185.185v1.887c0 .102.082.185.185.186m-2.93 0h2.12a.186.186 0 00.184-.186V6.29a.185.185 0 00-.185-.185H8.1a.185.185 0 00-.185.185v1.887c0 .102.083.185.185.186m-2.964 0h2.119a.186.186 0 00.185-.186V6.29a.185.185 0 00-.185-.185H5.136a.186.186 0 00-.186.185v1.887c0 .102.084.185.186.186m5.893 2.715h2.118a.186.186 0 00.186-.185V9.006a.186.186 0 00-.186-.186h-2.118a.185.185 0 00-.185.185v1.888c0 .102.082.185.185.185m-2.93 0h2.12a.185.185 0 00.184-.185V9.006a.185.185 0 00-.184-.186h-2.12a.185.185 0 00-.184.185v1.888c0 .102.083.185.185.185m-2.964 0h2.119a.185.185 0 00.185-.185V9.006a.185.185 0 00-.184-.186h-2.12a.186.186 0 00-.186.186v1.887c0 .102.084.185.186.185m-2.92 0h2.12a.185.185 0 00.184-.185V9.006a.185.185 0 00-.184-.186h-2.12a.185.185 0 00-.184.185v1.888c0 .102.082.185.185.185M23.763 9.89c-.065-.051-.672-.51-1.954-.51-.338.001-.676.03-1.01.087-.248-1.7-1.653-2.53-1.716-2.566l-.344-.199-.226.327c-.284.438-.49.922-.612 1.43-.23.97-.09 1.882.403 2.661-.595.332-1.55.413-1.744.42H.751a.751.751 0 00-.75.748 11.376 11.376 0 00.692 4.062c.545 1.428 1.355 2.48 2.41 3.124 1.18.723 3.1 1.137 5.275 1.137.983.003 1.963-.086 2.93-.266a12.248 12.248 0 003.823-1.389c.98-.567 1.86-1.288 2.61-2.136 1.252-1.418 1.998-2.997 2.553-4.4h.221c1.372 0 2.215-.549 2.68-1.009.309-.293.55-.65.707-1.046l.098-.288Z" />
		</symbol>
		<symbol id="git" viewBox="0 0 24 24">
			<path fill="#f05032" style="fill: #f05032"
				d="M23.546 10.93L13.067.452c-.604-.603-1.582-.603-2.188 0L8.708 2.627l2.76 2.76c.645-.215 1.379-.07 1.889.441.516.515.658 1.258.438 1.9l2.658 2.66c.645-.223 1.387-.078 1.9.435.721.72.721 1.884 0 2.604-.719.719-1.881.719-2.6 0-.539-.541-.674-1.337-.404-1.996L12.86 8.955v6.525c.176.086.342.203.488.348.713.721.713 1.883 0 2.6-.719.721-1.889.721-2.609 0-.719-.719-.719-1.879 0-2.598.182-.18.387-.316.605-.406V8.835c-.217-.091-.424-.222-.6-.401-.545-.545-.676-1.342-.396-2.009L7.636 3.7.45 10.881c-.6.605-.6 1.584 0 2.189l10.48 10.477c.604.604 1.582.604 2.186 0l10.43-10.43c.605-.603.605-1.582 0-2.187" />
		</symbol>
		<symbol id="github" viewBox="0 0 24 24">
			<path
				d="M12 .297c-6.63 0-12 5.373-12 12 0 5.303 3.438 9.8 8.205 11.385.6.113.82-.258.82-.577 0-.285-.01-1.04-.015-2.04-3.338.724-4.042-1.61-4.042-1.61C4.422 18.07 3.633 17.7 3.633 17.7c-1.087-.744.084-.729.084-.729 1.205.084 1.838 1.236 1.838 1.236 1.07 1.835 2.809 1.305 3.495.998.108-.776.417-1.305.76-1.605-2.665-.3-5.466-1.332-5.466-5.93 0-1.31.465-2.38 1.235-3.22-.135-.303-.54-1.523.105-3.176 0 0 1.005-.322 3.3 1.23.96-.267 1.98-.399 3-.405 1.02.006 2.04.138 3 .405 2.28-1.552 3.285-1.23 3.285-1.23.645 1.653.24 2.873.12 3.176.765.84 1.23 1.91 1.23 3.22 0 4.61-2.805 5.625-5.475 5.92.42.36.81 1.096.81 2.22 0 1.606-.015 2.896-.015 3.286 0 .315.21.69.825.57C20.565 22.092 24 17.592 24 12.297c0-6.627-5.373-12-12-12" />
		</symbol>
		<symbol id="gitlab" viewBox="0 0 24 24">
			<path fill="#fca121" style="fill: #fca121"
				d="m23.6004 9.5927-.0337-.0862L20.3.9814a.851.851 0 0 0-.3362-.405.8748.8748 0 0 0-.9997.0539.8748.8748 0 0 0-.29.4399l-2.2055 6.748H7.5375l-2.2057-6.748a.8573.8573 0 0 0-.29-.4412.8748.8748 0 0 0-.9997-.0537.8585.8585 0 0 0-.3362.4049L.4332 9.5015l-.0325.0862a6.0657 6.0657 0 0 0 2.0119 7.0105l.0113.0087.03.0213 4.976 3.7264 2.462 1.8633 1.4995 1.1321a1.0085 1.0085 0 0 0 1.2197 0l1.4995-1.1321 2.4619-1.8633 5.006-3.7489.0125-.01a6.0682 6.0682 0 0 0 2.0094-7.003z" />
		</symbol>
		<symbol id="graphql" viewBox="0 0 24 24">
			<path fill="#e10098" style="fill: #e10098"
				d="M12.002 0a2.138 2.138 0 1 0 0 4.277 2.138 2.138 0 1 0 0-4.277zm8.54 4.931a2.138 2.138 0 1 0 0 4.277 2.138 2.138 0 1 0 0-4.277zm0 9.862a2.138 2.138 0 1 0 0 4.277 2.138 2.138 0 1 0 0-4.277zm-8.54 4.931a2.138 2.138 0 1 0 0 4.276 2.138 2.138 0 1 0 0-4.276zm-8.542-4.93a2.138 2.138 0 1 0 0 4.276 2.138 2.138 0 1 0 0-4.277zm0-9.863a2.138 2.138 0 1 0 0 4.277 2.138 2.138 0 1 0 0-4.277zm8.542-3.378L2.953 6.777v10.448l9.049 5.224 9.047-5.224V6.777zm0 1.601 7.66 13.27H4.34zm-1.387.371L3.97 15.037V7.363zm2.774 0 6.646 3.838v7.674zM5.355 17.44h13.293l-6.646 3.836z" />
		</symbol>
		<symbol id="linux" viewBox="0 0 24 24">
			<path
				d="M12.504 0c-.155 0-.315.008-.48.021-4.226.333-3.105 4.807-3.17 6.298-.076 1.092-.3 1.953-1.05 3.02-.885 1.051-2.127 2.75-2.716 4.521-.278.832-.41 1.684-.287 2.489a.424.424 0 00-.11.135c-.26.268-.45.6-.663.839-.199.199-.485.267-.797.4-.313.136-.658.269-.864.68-.09.189-.136.394-.132.602 0 .199.027.4.055.536.058.399.116.728.04.97-.249.68-.28 1.145-.106 1.484.174.334.535.47.94.601.81.2 1.91.135 2.774.6.926.466 1.866.67 2.616.47.526-.116.97-.464 1.208-.946.587-.003 1.23-.269 2.26-.334.699-.058 1.574.267 2.577.2.025.134.063.198.114.333l.003.003c.391.778 1.113 1.132 1.884 1.071.771-.06 1.592-.536 2.257-1.306.631-.765 1.683-1.084 2.378-1.503.348-.199.629-.469.649-.853.023-.4-.2-.811-.714-1.376v-.097l-.003-.003c-.17-.2-.25-.535-.338-.926-.085-.401-.182-.786-.492-1.046h-.003c-.059-.054-.123-.067-.188-.135a.357.357 0 00-.19-.064c.431-1.278.264-2.55-.173-3.694-.533-1.41-1.465-2.638-2.175-3.483-.796-1.005-1.576-1.957-1.56-3.368.026-2.152.236-6.133-3.544-6.139zm.529 3.405h.013c.213 0 .396.062.584.198.19.135.33.332.438.533.105.259.158.459.166.724 0-.02.006-.04.006-.06v.105a.086.086 0 01-.004-.021l-.004-.024a1.807 1.807 0 01-.15.706.953.953 0 01-.213.335.71.71 0 00-.088-.042c-.104-.045-.198-.064-.284-.133a1.312 1.312 0 00-.22-.066c.05-.06.146-.133.183-.198.053-.128.082-.264.088-.402v-.02a1.21 1.21 0 00-.061-.4c-.045-.134-.101-.2-.183-.333-.084-.066-.167-.132-.267-.132h-.016c-.093 0-.176.03-.262.132a.8.8 0 00-.205.334 1.18 1.18 0 00-.09.4v.019c.002.089.008.179.02.267-.193-.067-.438-.135-.607-.202a1.635 1.635 0 01-.018-.2v-.02a1.772 1.772 0 01.15-.768c.082-.22.232-.406.43-.533a.985.985 0 01.594-.2zm-2.962.059h.036c.142 0 .27.048.399.135.146.129.264.288.344.465.09.199.14.4.153.667v.004c.007.134.006.2-.002.266v.08c-.03.007-.056.018-.083.024-.152.055-.274.135-.393.2.012-.09.013-.18.003-.267v-.015c-.012-.133-.04-.2-.082-.333a.613.613 0 00-.166-.267.248.248 0 00-.183-.064h-.021c-.071.006-.13.04-.186.132a.552.552 0 00-.12.27.944.944 0 00-.023.33v.015c.012.135.037.2.08.334.046.134.098.2.166.268.01.009.02.018.034.024-.07.057-.117.07-.176.136a.304.304 0 01-.131.068 2.62 2.62 0 01-.275-.402 1.772 1.772 0 01-.155-.667 1.759 1.759 0 01.08-.668 1.43 1.43 0 01.283-.535c.128-.133.26-.2.418-.2zm1.37 1.706c.332 0 .733.065 1.216.399.293.2.523.269 1.052.468h.003c.255.136.405.266.478.399v-.131a.571.571 0 01.016.47c-.123.31-.516.643-1.063.842v.002c-.268.135-.501.333-.775.465-.276.135-.588.292-1.012.267a1.139 1.139 0 01-.448-.067 3.566 3.566 0 01-.322-.198c-.195-.135-.363-.332-.612-.465v-.005h-.005c-.4-.246-.616-.512-.686-.71-.07-.268-.005-.47.193-.6.224-.135.38-.271.483-.336.104-.074.143-.102.176-.131h.002v-.003c.169-.202.436-.47.839-.601.139-.036.294-.065.466-.065zm2.8 2.142c.358 1.417 1.196 3.475 1.735 4.473.286.534.855 1.659 1.102 3.024.156-.005.33.018.513.064.646-1.671-.546-3.467-1.089-3.966-.22-.2-.232-.335-.123-.335.59.534 1.365 1.572 1.646 2.757.13.535.16 1.104.021 1.67.067.028.135.06.205.067 1.032.534 1.413.938 1.23 1.537v-.043c-.06-.003-.12 0-.18 0h-.016c.151-.467-.182-.825-1.065-1.224-.915-.4-1.646-.336-1.77.465-.008.043-.013.066-.018.135-.068.023-.139.053-.209.064-.43.268-.662.669-.793 1.187-.13.533-.17 1.156-.205 1.869v.003c-.02.334-.17.838-.319 1.35-1.5 1.072-3.58 1.538-5.348.334a2.645 2.645 0 00-.402-.533 1.45 1.45 0 00-.275-.333c.182 0 .338-.03.465-.067a.615.615 0 00.314-.334c.108-.267 0-.697-.345-1.163-.345-.467-.931-.995-1.788-1.521-.63-.4-.986-.87-1.15-1.396-.165-.534-.143-1.085-.015-1.645.245-1.07.873-2.11 1.274-2.763.107-.065.037.135-.408.974-.396.751-1.14 2.497-.122 3.854a8.123 8.123 0 01.647-2.876c.564-1.278 1.743-3.504 1.836-5.268.048.036.217.135.289.202.218.133.38.333.59.465.21.201.477.335.876.335.039.003.075.006.11.006.412 0 .73-.134.997-.268.29-.134.52-.334.74-.4h.005c.467-.135.835-.402 1.044-.7zm2.185 8.958c.037.6.343 1.245.882 1.377.588.134 1.434-.333 1.791-.765l.211-.01c.315-.007.577.01.847.268l.003.003c.208.199.305.53.391.876.085.4.154.78.409 1.066.486.527.645.906.636 1.14l.003-.007v.018l-.003-.012c-.015.262-.185.396-.498.595-.63.401-1.746.712-2.457 1.57-.618.737-1.37 1.14-2.036 1.191-.664.053-1.237-.2-1.574-.898l-.005-.003c-.21-.4-.12-1.025.056-1.69.176-.668.428-1.344.463-1.897.037-.714.076-1.335.195-1.814.12-.465.308-.797.641-.984l.045-.022zm-10.814.049h.01c.053 0 .105.005.157.014.376.055.706.333 1.023.752l.91 1.664.003.003c.243.533.754 1.064 1.189 1.637.434.598.77 1.131.729 1.57v.006c-.057.744-.48 1.148-1.125 1.294-.645.135-1.52.002-2.395-.464-.968-.536-2.118-.469-2.857-.602-.369-.066-.61-.2-.723-.4-.11-.2-.113-.602.123-1.23v-.004l.002-.003c.117-.334.03-.752-.027-1.118-.055-.401-.083-.71.043-.94.16-.334.396-.4.69-.533.294-.135.64-.202.915-.47h.002v-.002c.256-.268.445-.601.668-.838.19-.201.38-.336.663-.336zm7.159-9.074c-.435.201-.945.535-1.488.535-.542 0-.97-.267-1.28-.466-.154-.134-.28-.268-.373-.335-.164-.134-.144-.333-.074-.333.109.016.129.134.199.2.096.066.215.2.36.333.292.2.68.467 1.167.467.485 0 1.053-.267 1.398-.466.195-.135.445-.334.648-.467.156-.136.149-.267.279-.267.128.016.034.134-.147.332a8.097 8.097 0 01-.69.468zm-1.082-1.583V5.64c-.006-.02.013-.042.029-.05.074-.043.18-.027.26.004.063 0 .16.067.15.135-.006.049-.085.066-.135.066-.055 0-.092-.043-.141-.068-.052-.018-.146-.008-.163-.065zm-.551 0c-.02.058-.113.049-.166.066-.047.025-.086.068-.14.068-.05 0-.13-.02-.136-.068-.01-.066.088-.133.15-.133.08-.031.184-.047.259-.005.019.009.036.03.03.05v.02h.003z" />
		</symbol>
		<symbol id="netlify" viewBox="0 0 24 24">
			<path fill="#00C7B7" style="fill: #00C7B7"
				d="M17.3877 8.3286l-.0088-.0037c-.005-.002-.01-.0038-.0144-.0082a.0689.0689 0 0 1-.0176-.0582l.4839-2.9581 2.269 2.2696L17.74 8.574a.052.052 0 0 1-.0206.0037H17.71a.0647.0647 0 0 1-.0126-.0106 1.074 1.074 0 0 0-.3097-.2385zm3.291-.1802l2.4262 2.426c.5039.5045.7561.7562.8481 1.0479.0138.0431.025.0863.0338.1308l-5.798-2.4555a.4557.4557 0 0 0-.0093-.0038c-.0232-.0094-.0501-.02-.0501-.0439 0-.0237.0275-.035.0507-.0444l.0075-.0031zm3.2092 4.3833c-.1252.2354-.3693.4795-.7824.8932l-2.7353 2.7347-3.5377-.7367-.0188-.0038c-.0313-.005-.0645-.0107-.0645-.0388a1.0678 1.0678 0 0 0-.41-.7467c-.0144-.0144-.0106-.037-.0063-.0576 0-.003 0-.0063.0013-.0088l.6654-4.0848.0025-.0138c.0038-.0313.0094-.0676.0376-.0676a1.0829 1.0829 0 0 0 .726-.4162c.0056-.0063.0094-.0131.017-.0169.02-.0094.0437 0 .0644.0088l6.0402 2.555zm-4.1467 4.257l-4.498 4.4979.77-4.732.0012-.0063a.083.083 0 0 1 .0038-.0182c.0063-.015.0226-.0213.0382-.0275l.0075-.0031a1.158 1.158 0 0 0 .435-.3236c.015-.0176.0332-.0345.0564-.0376a.0563.0563 0 0 1 .0181 0l3.1672.651zm-5.45 5.4499l-.507.507-5.6052-8.1007a.2654.2654 0 0 0-.0062-.0088c-.0088-.012-.0182-.0238-.0163-.0376.0006-.01.0069-.0188.0138-.0263l.0062-.0081c.017-.025.0313-.05.047-.077l.0125-.0219.0019-.0019c.0087-.015.0169-.0294.0319-.0376.0131-.0063.0313-.0038.0457-.0006l6.2098 1.2807a.1027.1027 0 0 1 .0476.0206c.008.0081.01.017.0119.027a1.0998 1.0998 0 0 0 .6434.7354c.0175.0088.01.0282.002.0488a.149.149 0 0 0-.0095.0282c-.0782.4757-.7492 4.568-.9295 5.6728zm-1.059 1.0584c-.3737.37-.594.5659-.8432.6447a1.2519 1.2519 0 0 1-.7549 0c-.2916-.0926-.5439-.3442-1.0478-.8487l-5.629-5.629 1.4704-2.2802a.0938.0938 0 0 1 .025-.0294c.0157-.0113.0382-.0063.057 0a1.5235 1.5235 0 0 0 1.0253-.052c.0169-.0063.0338-.0106.0469.0013a.119.119 0 0 1 .0175.02l5.6327 8.174zm-8.8175-6.3756L3.1234 15.63l2.55-1.0879a.0526.0526 0 0 1 .0207-.0044c.0213 0 .0338.0213.045.0407a1.8214 1.8214 0 0 0 .0814.1152l.0082.01c.0075.0106.0025.0213-.005.0313l-1.4084 2.1864zm-1.8628-1.8628L.9183 13.4249c-.278-.2779-.4795-.4794-.6197-.6528l4.9674 1.0303a.5258.5258 0 0 0 .0187.003c.0307.005.0645.0107.0645.0395 0 .0313-.037.0457-.0682.0576l-.0144.0063zM.0132 11.932a1.2519 1.2519 0 0 1 .0563-.3098c.0927-.2917.3443-.5434.8488-1.0478l2.0906-2.0906a1361.7196 1361.7196 0 0 0 2.8955 4.1855c.017.0226.0357.0476.0163.0664-.0914.1008-.1828.211-.2473.3305a.1001.1001 0 0 1-.0313.0388c-.008.005-.0169.003-.0262.0013h-.0013l-5.6014-1.175zm3.5553-4.0078l2.811-2.811c.2641.1157 1.2256.522 2.0856.885.651.2754 1.2443.5258 1.4308.6071.0188.0076.0357.015.0439.0338.005.0113.0025.0257 0 .0376a1.2537 1.2537 0 0 0 .3273 1.1442c.0188.0188 0 .0457-.0163.0689l-.0088.0131-2.8542 4.421c-.0075.0124-.0144.023-.0269.0312-.015.0094-.0363.005-.0538.0006a1.4234 1.4234 0 0 0-.34-.0463c-.1026 0-.214.0188-.3266.0395h-.0007c-.0125.0019-.0238.0044-.0338-.0031a.1314.1314 0 0 1-.0281-.032zm3.3787-3.3788l3.6391-3.639c.504-.5039.7562-.7561 1.0478-.8481a1.2519 1.2519 0 0 1 .755 0c.2916.092.5438.3442 1.0477.848l.7887.7888-2.5882 4.0084a.097.097 0 0 1-.0257.03c-.0156.0107-.0375.0063-.0563 0a1.3126 1.3126 0 0 0-1.2018.2316c-.0169.0176-.042.0075-.0632-.0019-.338-.147-2.967-1.258-3.343-1.4177zm7.8278-2.3009l2.3898 2.3898-.5758 3.5665v.0094a.0845.0845 0 0 1-.005.0238c-.0063.0125-.0188.015-.0313.0188a1.1454 1.1454 0 0 0-.343.1709.0964.0964 0 0 0-.0125.0106c-.007.0075-.0138.0144-.025.0157a.0714.0714 0 0 1-.027-.0044l-3.6416-1.5473-.007-.0031c-.0231-.0094-.0506-.0207-.0506-.0445a1.3758 1.3758 0 0 0-.194-.5727c-.0176-.0288-.037-.0588-.022-.0883zm-2.461 5.3868l3.4138 1.446c.0188.0087.0394.0168.0476.0362a.0663.0663 0 0 1 0 .0357.848.848 0 0 0-.0188.1646v.0958c0 .0238-.0244.0338-.047.0432l-.0069.0025c-.5408.231-7.5924 3.238-7.603 3.238-.0107 0-.022 0-.0326-.0107-.0188-.0188 0-.0451.0169-.0689a.4757.4757 0 0 0 .0087-.0125l2.8054-4.344.005-.0074c.0163-.0263.035-.0557.0651-.0557l.0282.0043c.0638.0088.1202.017.1771.017.4257 0 .82-.2072 1.0579-.5615a.1001.1001 0 0 1 .0212-.025c.017-.0126.042-.0063.0614.0024zm-3.9095 5.7492l7.6863-3.278s.0113 0 .022.0106c.0419.042.0776.0701.112.0964l.0169.0107c.0156.0088.0313.0188.0325.035 0 .0063 0 .01-.0013.0157l-.6584 4.0447-.0025.0163c-.0044.0313-.0088.067-.0382.067a1.0822 1.0822 0 0 0-.8594.5301l-.0031.005c-.0088.0144-.017.0282-.0313.0357-.0131.0063-.03.0038-.0438.0006L8.5064 13.706c-.0063-.0013-.0952-.3249-.102-.3255z" />
		</symbol>
		<symbol id="nodejs" viewBox="0 0 24 24">
			<path fill="#339933" style="fill: #339933"
				d="M11.998,24c-0.321,0-0.641-0.084-0.922-0.247l-2.936-1.737c-0.438-0.245-0.224-0.332-0.08-0.383 c0.585-0.203,0.703-0.25,1.328-0.604c0.065-0.037,0.151-0.023,0.218,0.017l2.256,1.339c0.082,0.045,0.197,0.045,0.272,0l8.795-5.076 c0.082-0.047,0.134-0.141,0.134-0.238V6.921c0-0.099-0.053-0.192-0.137-0.242l-8.791-5.072c-0.081-0.047-0.189-0.047-0.271,0 L3.075,6.68C2.99,6.729,2.936,6.825,2.936,6.921v10.15c0,0.097,0.054,0.189,0.139,0.235l2.409,1.392 c1.307,0.654,2.108-0.116,2.108-0.89V7.787c0-0.142,0.114-0.253,0.256-0.253h1.115c0.139,0,0.255,0.112,0.255,0.253v10.021 c0,1.745-0.95,2.745-2.604,2.745c-0.508,0-0.909,0-2.026-0.551L2.28,18.675c-0.57-0.329-0.922-0.945-0.922-1.604V6.921 c0-0.659,0.353-1.275,0.922-1.603l8.795-5.082c0.557-0.315,1.296-0.315,1.848,0l8.794,5.082c0.57,0.329,0.924,0.944,0.924,1.603 v10.15c0,0.659-0.354,1.273-0.924,1.604l-8.794,5.078C12.643,23.916,12.324,24,11.998,24z M19.099,13.993 c0-1.9-1.284-2.406-3.987-2.763c-2.731-0.361-3.009-0.548-3.009-1.187c0-0.528,0.235-1.233,2.258-1.233 c1.807,0,2.473,0.389,2.747,1.607c0.024,0.115,0.129,0.199,0.247,0.199h1.141c0.071,0,0.138-0.031,0.186-0.081 c0.048-0.054,0.074-0.123,0.067-0.196c-0.177-2.098-1.571-3.076-4.388-3.076c-2.508,0-4.004,1.058-4.004,2.833 c0,1.925,1.488,2.457,3.895,2.695c2.88,0.282,3.103,0.703,3.103,1.269c0,0.983-0.789,1.402-2.642,1.402 c-2.327,0-2.839-0.584-3.011-1.742c-0.02-0.124-0.126-0.215-0.253-0.215h-1.137c-0.141,0-0.254,0.112-0.254,0.253 c0,1.482,0.806,3.248,4.655,3.248C17.501,17.007,19.099,15.91,19.099,13.993z" />
		</symbol>
		<symbol id="npm" viewBox="0 0 24 24">
			<path fill="#cb3837" style="fill: #cb3837"
				d="M1.763 0C.786 0 0 .786 0 1.763v20.474C0 23.214.786 24 1.763 24h20.474c.977 0 1.763-.786 1.763-1.763V1.763C24 .786 23.214 0 22.237 0zM5.13 5.323l13.837.019-.009 13.836h-3.464l.01-10.382h-3.456L12.04 19.17H5.113z" />
		</symbol>
		<symbol id="react" viewBox="0 0 24 24">
			<path fill="#61dafb" style="fill: #61dafb"
				d="M14.23 12.004a2.236 2.236 0 0 1-2.235 2.236 2.236 2.236 0 0 1-2.236-2.236 2.236 2.236 0 0 1 2.235-2.236 2.236 2.236 0 0 1 2.236 2.236zm2.648-10.69c-1.346 0-3.107.96-4.888 2.622-1.78-1.653-3.542-2.602-4.887-2.602-.41 0-.783.093-1.106.278-1.375.793-1.683 3.264-.973 6.365C1.98 8.917 0 10.42 0 12.004c0 1.59 1.99 3.097 5.043 4.03-.704 3.113-.39 5.588.988 6.38.32.187.69.275 1.102.275 1.345 0 3.107-.96 4.888-2.624 1.78 1.654 3.542 2.603 4.887 2.603.41 0 .783-.09 1.106-.275 1.374-.792 1.683-3.263.973-6.365C22.02 15.096 24 13.59 24 12.004c0-1.59-1.99-3.097-5.043-4.032.704-3.11.39-5.587-.988-6.38-.318-.184-.688-.277-1.092-.278zm-.005 1.09v.006c.225 0 .406.044.558.127.666.382.955 1.835.73 3.704-.054.46-.142.945-.25 1.44-.96-.236-2.006-.417-3.107-.534-.66-.905-1.345-1.727-2.035-2.447 1.592-1.48 3.087-2.292 4.105-2.295zm-9.77.02c1.012 0 2.514.808 4.11 2.28-.686.72-1.37 1.537-2.02 2.442-1.107.117-2.154.298-3.113.538-.112-.49-.195-.964-.254-1.42-.23-1.868.054-3.32.714-3.707.19-.09.4-.127.563-.132zm4.882 3.05c.455.468.91.992 1.36 1.564-.44-.02-.89-.034-1.345-.034-.46 0-.915.01-1.36.034.44-.572.895-1.096 1.345-1.565zM12 8.1c.74 0 1.477.034 2.202.093.406.582.802 1.203 1.183 1.86.372.64.71 1.29 1.018 1.946-.308.655-.646 1.31-1.013 1.95-.38.66-.773 1.288-1.18 1.87-.728.063-1.466.098-2.21.098-.74 0-1.477-.035-2.202-.093-.406-.582-.802-1.204-1.183-1.86-.372-.64-.71-1.29-1.018-1.946.303-.657.646-1.313 1.013-1.954.38-.66.773-1.286 1.18-1.868.728-.064 1.466-.098 2.21-.098zm-3.635.254c-.24.377-.48.763-.704 1.16-.225.39-.435.782-.635 1.174-.265-.656-.49-1.31-.676-1.947.64-.15 1.315-.283 2.015-.386zm7.26 0c.695.103 1.365.23 2.006.387-.18.632-.405 1.282-.66 1.933-.2-.39-.41-.783-.64-1.174-.225-.392-.465-.774-.705-1.146zm3.063.675c.484.15.944.317 1.375.498 1.732.74 2.852 1.708 2.852 2.476-.005.768-1.125 1.74-2.857 2.475-.42.18-.88.342-1.355.493-.28-.958-.646-1.956-1.1-2.98.45-1.017.81-2.01 1.085-2.964zm-13.395.004c.278.96.645 1.957 1.1 2.98-.45 1.017-.812 2.01-1.086 2.964-.484-.15-.944-.318-1.37-.5-1.732-.737-2.852-1.706-2.852-2.474 0-.768 1.12-1.742 2.852-2.476.42-.18.88-.342 1.356-.494zm11.678 4.28c.265.657.49 1.312.676 1.948-.64.157-1.316.29-2.016.39.24-.375.48-.762.705-1.158.225-.39.435-.788.636-1.18zm-9.945.02c.2.392.41.783.64 1.175.23.39.465.772.705 1.143-.695-.102-1.365-.23-2.006-.386.18-.63.406-1.282.66-1.933zM17.92 16.32c.112.493.2.968.254 1.423.23 1.868-.054 3.32-.714 3.708-.147.09-.338.128-.563.128-1.012 0-2.514-.807-4.11-2.28.686-.72 1.37-1.536 2.02-2.44 1.107-.118 2.154-.3 3.113-.54zm-11.83.01c.96.234 2.006.415 3.107.532.66.905 1.345 1.727 2.035 2.446-1.595 1.483-3.092 2.295-4.11 2.295-.22-.005-.406-.05-.553-.132-.666-.38-.955-1.834-.73-3.703.054-.46.142-.944.25-1.438zm4.56.64c.44.02.89.034 1.345.034.46 0 .915-.01 1.36-.034-.44.572-.895 1.095-1.345 1.565-.455-.47-.91-.993-1.36-1.565z" />
		</symbol>
		<symbol id="redux" viewBox="0 0 24 24">
			<path fill="#764abc" style="fill: #764abc"
				d="M16.634 16.504c.87-.075 1.543-.84 1.5-1.754-.047-.914-.796-1.648-1.709-1.648h-.061a1.71 1.71 0 00-1.648 1.769c.03.479.226.869.494 1.153-1.048 2.038-2.621 3.536-5.005 4.795-1.603.838-3.296 1.154-4.944.93-1.378-.195-2.456-.81-3.116-1.799-.988-1.499-1.078-3.116-.255-4.734.6-1.17 1.499-2.023 2.099-2.443a9.96 9.96 0 01-.42-1.543C-.868 14.408-.416 18.752.932 20.805c1.004 1.498 3.057 2.456 5.304 2.456.6 0 1.23-.044 1.843-.194 3.897-.749 6.848-3.086 8.541-6.532zm5.348-3.746c-2.32-2.728-5.738-4.226-9.634-4.226h-.51c-.253-.554-.837-.899-1.498-.899h-.045c-.943 0-1.678.81-1.647 1.753.03.898.794 1.648 1.708 1.648h.074a1.69 1.69 0 001.499-1.049h.555c2.309 0 4.495.674 6.488 1.992 1.527 1.005 2.622 2.323 3.237 3.897.538 1.288.509 2.547-.045 3.597-.855 1.647-2.294 2.517-4.196 2.517-1.199 0-2.367-.375-2.967-.644-.36.298-.96.793-1.394 1.093 1.318.598 2.652.943 3.94.943 2.922 0 5.094-1.647 5.919-3.236.898-1.798.824-4.824-1.47-7.416zM6.49 17.042c.03.899.793 1.648 1.708 1.648h.06a1.688 1.688 0 001.648-1.768c0-.9-.779-1.647-1.693-1.647h-.06c-.06 0-.15 0-.226.029-1.243-2.098-1.768-4.347-1.572-6.772.12-1.828.72-3.417 1.797-4.735.9-1.124 2.593-1.68 3.747-1.708 3.236-.061 4.585 3.971 4.689 5.574l1.498.45C17.741 3.197 14.686.62 11.764.62 9.02.62 6.49 2.613 5.47 5.535 4.077 9.43 4.991 13.177 6.7 16.174c-.15.195-.24.539-.21.868z" />
		</symbol>
		<symbol id="visualstudiocode" viewBox="0 0 24 24">
			<path fill="#007acc" style="fill: #007acc"
				d="M23.15 2.587L18.21.21a1.494 1.494 0 0 0-1.705.29l-9.46 8.63-4.12-3.128a.999.999 0 0 0-1.276.057L.327 7.261A1 1 0 0 0 .326 8.74L3.899 12 .326 15.26a1 1 0 0 0 .001 1.479L1.65 17.94a.999.999 0 0 0 1.276.057l4.12-3.128 9.46 8.63a1.492 1.492 0 0 0 1.704.29l4.942-2.377A1.5 1.5 0 0 0 24 20.06V3.939a1.5 1.5 0 0 0-.85-1.352zm-5.146 14.861L10.826 12l7.178-5.448v10.896z" />
		</symbol>
		<symbol id="vuejs" viewBox="0 0 24 24">
			<path fill="#4fc08d" style="fill: #4fc08d"
				d="M24,1.61H14.06L12,5.16,9.94,1.61H0L12,22.39ZM12,14.08,5.16,2.23H9.59L12,6.41l2.41-4.18h4.43Z" />
		</symbol>
		<symbol id="wordpress" viewBox="0 0 24 24">
			<path fill="#21759b" style="fill: #21759b"
				d="M21.469 6.825c.84 1.537 1.318 3.3 1.318 5.175 0 3.979-2.156 7.456-5.363 9.325l3.295-9.527c.615-1.54.82-2.771.82-3.864 0-.405-.026-.78-.07-1.11m-7.981.105c.647-.03 1.232-.105 1.232-.105.582-.075.514-.93-.067-.899 0 0-1.755.135-2.88.135-1.064 0-2.85-.15-2.85-.15-.585-.03-.661.855-.075.885 0 0 .54.061 1.125.09l1.68 4.605-2.37 7.08L5.354 6.9c.649-.03 1.234-.1 1.234-.1.585-.075.516-.93-.065-.896 0 0-1.746.138-2.874.138-.2 0-.438-.008-.69-.015C4.911 3.15 8.235 1.215 12 1.215c2.809 0 5.365 1.072 7.286 2.833-.046-.003-.091-.009-.141-.009-1.06 0-1.812.923-1.812 1.914 0 .89.513 1.643 1.06 2.531.411.72.89 1.643.89 2.977 0 .915-.354 1.994-.821 3.479l-1.075 3.585-3.9-11.61.001.014zM12 22.784c-1.059 0-2.081-.153-3.048-.437l3.237-9.406 3.315 9.087c.024.053.05.101.078.149-1.12.393-2.325.609-3.582.609M1.211 12c0-1.564.336-3.05.935-4.39L7.29 21.709C3.694 19.96 1.212 16.271 1.211 12M12 0C5.385 0 0 5.385 0 12s5.385 12 12 12 12-5.385 12-12S18.615 0 12 0" />
		</symbol>
		<symbol id="svelte" viewBox="0 0 24 24">
			<path fill="#FF3E00" style="fill: #FF3E00"
				d="M10.354 21.125a4.44 4.44 0 0 1-4.765-1.767 4.109 4.109 0 0 1-.703-3.107 3.898 3.898 0 0 1 .134-.522l.105-.321.287.21a7.21 7.21 0 0 0 2.186 1.092l.208.063-.02.208a1.253 1.253 0 0 0 .226.83 1.337 1.337 0 0 0 1.435.533 1.231 1.231 0 0 0 .343-.15l5.59-3.562a1.164 1.164 0 0 0 .524-.778 1.242 1.242 0 0 0-.211-.937 1.338 1.338 0 0 0-1.435-.533 1.23 1.23 0 0 0-.343.15l-2.133 1.36a4.078 4.078 0 0 1-1.135.499 4.44 4.44 0 0 1-4.765-1.766 4.108 4.108 0 0 1-.702-3.108 3.855 3.855 0 0 1 1.742-2.582l5.589-3.563a4.072 4.072 0 0 1 1.135-.499 4.44 4.44 0 0 1 4.765 1.767 4.109 4.109 0 0 1 .703 3.107 3.943 3.943 0 0 1-.134.522l-.105.321-.286-.21a7.204 7.204 0 0 0-2.187-1.093l-.208-.063.02-.207a1.255 1.255 0 0 0-.226-.831 1.337 1.337 0 0 0-1.435-.532 1.231 1.231 0 0 0-.343.15L8.62 9.368a1.162 1.162 0 0 0-.524.778 1.24 1.24 0 0 0 .211.937 1.338 1.338 0 0 0 1.435.533 1.235 1.235 0 0 0 .344-.151l2.132-1.36a4.067 4.067 0 0 1 1.135-.498 4.44 4.44 0 0 1 4.765 1.766 4.108 4.108 0 0 1 .702 3.108 3.857 3.857 0 0 1-1.742 2.583l-5.589 3.562a4.072 4.072 0 0 1-1.135.499m10.358-17.95C18.484-.015 14.082-.96 10.9 1.068L5.31 4.63a6.412 6.412 0 0 0-2.896 4.295 6.753 6.753 0 0 0 .666 4.336 6.43 6.43 0 0 0-.96 2.396 6.833 6.833 0 0 0 1.168 5.167c2.229 3.19 6.63 4.135 9.812 2.108l5.59-3.562a6.41 6.41 0 0 0 2.896-4.295 6.756 6.756 0 0 0-.665-4.336 6.429 6.429 0 0 0 .958-2.396 6.831 6.831 0 0 0-1.167-5.168Z" />
		</symbol>
	</defs>
</svg>