<svg xmlns="http://www.w3.org/2000/svg" viewBox="0 0 100 100"><style>@media (prefers-color-scheme:dark){path{fill:#fff}}</style><path d="M30.5 81a32.4 32.4 0 01-12.3-12.4A36.6 36.6 0 0113.5 50a40.2 40.2 0 014-18.5 29.4 29.4 0 0111.6-12.3 34 34 0 0117.6-4.4 29.3 29.3 0 0111 2 31 31 0 018.7 5.1 22.9 22.9 0 012.2 2.2 1.5 1.5 0 002.6-1l.1-5.2a1.5 1.5 0 011.5-1.4H85a1.5 1.5 0 011.5 1.5v64.5a1.5 1.5 0 01-1.5 1.4H73a1.5 1.5 0 01-1.5-1.4l-.2-5.8a1.5 1.5 0 00-2.5-.9 26.6 26.6 0 01-6.7 5.6 27.9 27.9 0 01-14.8 4A33.7 33.7 0 0130.5 81zM64 66.3q5.7-5.8 5.7-15.2v-1a23.8 23.8 0 00-2.6-11.3 19.8 19.8 0 00-7.2-7.8 18.8 18.8 0 00-10-2.8q-9.4 0-14.5 6.1t-5.1 15.8q0 9.8 5 15.9T50 72A19 19 0 0064 66.4z"/></svg>