<svg aria-hidden="true" style="position: absolute; width: 0; height: 0; overflow: hidden;"
	version="1.1"
	xmlns="http://www.w3.org/2000/svg"
	xmlns:xlink="http://www.w3.org/1999/xlink">
	<defs>
		<symbol id="azurepipelines" viewBox="0 0 24 24">
			<path fill="#2560E0" style="fill: #2560E0"
				d="M1.7997 22.1998h4.2001V24H.0004v-6.0002h1.7993v4.2zM12.6229 9.8975l-7.6353 7.6353 1.4792 1.4792 7.6345-7.6362-1.4784-1.4783zM4.365 15.1793l-.391-.3908c-.5042-.5042-.5828-1.3004-.1869-1.8934l4.6036-6.8958H.9979c-.5513.0014-.9975.4487-.9975 1v5.5002l3.5021 3.6036.8625-.9238zM23.9996.9999v8.9306a2 2 0 0 1-.8893 1.6632l-12.2834 8.2005a.9999.9999 0 0 1-1.2622-.1246L8.04 18.1457c.3313-.3313 6.4656-6.4672 6.7684-6.7698l-2.1855-2.1855L5.8533 15.96l-1.5258-1.525a1.0001 1.0001 0 0 1-.1246-1.2623L12.4034.8893A2 2 0 0 1 14.0666 0h8.9331c.5522 0 .9999.4477.9999.9999zm-2.9997 5.0003c0-1.6567-1.343-2.9997-2.9997-2.9997s-2.9997 1.343-2.9997 2.9997 1.343 2.9997 2.9997 2.9997 2.9997-1.343 2.9997-2.9997zM10.272 20.4625c-.4008 0-.7776-.156-1.0609-.4392l-.368-.3679-.8435.8417 3.4996 3.4996h5.5003c.5522 0 .9999-.4477.9999-.9999v-7.3899L11.1045 20.21a1.4944 1.4944 0 0 1-.8325.2525z" />
		</symbol>
		<symbol id="azure" viewBox="0 0 24 24">
			<path fill="#0078D4" style="fill: #0078D4"
				d="M22.379 23.343a1.62 1.62 0 0 0 1.536-2.14v.002L17.35 1.76A1.62 1.62 0 0 0 15.816.657H8.184A1.62 1.62 0 0 0 6.65 1.76L.086 21.204a1.62 1.62 0 0 0 1.536 2.139h4.741a1.62 1.62 0 0 0 1.535-1.103l.977-2.892 4.947 3.675c.28.208.618.32.966.32m-3.084-12.531 3.624 10.739a.54.54 0 0 1-.51.713v-.001h-.03a.54.54 0 0 1-.322-.106l-9.287-6.9h4.853m6.313 7.006c.116-.326.13-.694.007-1.058L9.79 1.76a1.722 1.722 0 0 0-.007-.02h6.034a.54.54 0 0 1 .512.366l6.562 19.445a.54.54 0 0 1-.338.684" />
		</symbol>
		<symbol id="ae" viewBox="0 0 24 24">
			<rect width="20" height="20" fill="#9999FF" x="2" y="2" />
			<path fill="#00005b" style="fill: #00005b"
				d="m8.54 10.73-.29-.92-.27-.89-.22-.78h-.02c-.09.43-.2.86-.34 1.29l-.46 1.48c-.13.51-.29.98-.44 1.4h2.54a30.12 30.12 0 0 1-.5-1.58zm8.58-.29a1.4 1.4 0 0 0-1.33.76c-.12.23-.19.47-.22.72h2.1l.58-.01a.49.49 0 0 0 .23-.08v-.1a1.32 1.32 0 0 0-1.36-1.29zM19.75.3H4.25A4.25 4.25 0 0 0 0 4.55v14.9c0 2.35 1.9 4.25 4.25 4.25h15.5c2.35 0 4.25-1.9 4.25-4.25V4.55C24 2.2 22.1.3 19.75.3zm-7.04 16.51h-2.09c-.07.01-.14-.04-.16-.1l-.82-2.4H5.92l-.76 2.35a.18.18 0 0 1-.19.14H3.09c-.11 0-.14-.06-.11-.18L6.2 7.4l.1-.31c.04-.21.06-.43.06-.65-.01-.05.03-.1.08-.11h2.59c.07 0 .12.03.13.08l3.65 10.25c.03.11 0 .16-.1.16zm7.85-3.99-.04.42c-.01.07-.07.13-.14.13l-.33.02c-.16.02-.35.03-.58.03-.23 0-.47-.04-.73-.04h-3.17c.04.31.14.62.31.89.18.27.43.48.73.6.4.17.84.26 1.28.25a6.1 6.1 0 0 0 1.93-.34c.05-.04.08-.02.08.08v1.53c0 .04 0 .08-.02.12a.24.24 0 0 1-.07.07c-.32.14-.65.24-1 .3-.47.1-.94.13-1.42.12-.76 0-1.4-.12-1.92-.35a3.4 3.4 0 0 1-1.26-.95 3.69 3.69 0 0 1-.69-1.3 5.11 5.11 0 0 1 .04-3.06c.16-.5.41-.96.75-1.37.33-.4.74-.72 1.21-.95a3.78 3.78 0 0 1 1.67-.31c.53-.01 1.06.09 1.55.31.41.18.77.45 1.05.8a3.68 3.68 0 0 1 .79 2.36l-.02.64z" />
		</symbol>
		<symbol id="ai" viewBox="0 0 24 24">
			<rect width="20" height="20" fill="#FF9A00" x="2" y="2" />
			<path fill="#300" style="fill: #300"
				d="M10.53 10.73c-.1-.31-.19-.61-.29-.92-.1-.31-.19-.6-.27-.89-.08-.28-.15-.54-.22-.78h-.02c-.09.43-.2.86-.34 1.29-.15.48-.3.98-.46 1.48-.14.51-.29.98-.44 1.4h2.54c-.06-.211-.14-.46-.23-.721-.09-.269-.18-.559-.27-.859zM19.75.3H4.25C1.9.3 0 2.2 0 4.55v14.9c0 2.35 1.9 4.25 4.25 4.25h15.5c2.35 0 4.25-1.9 4.25-4.25V4.55C24 2.2 22.1.3 19.75.3zM14.7 16.83h-2.091c-.069.01-.139-.04-.159-.11l-.82-2.38H7.91l-.76 2.35c-.02.09-.1.15-.19.141H5.08c-.11 0-.14-.061-.11-.18L8.19 7.38c.03-.1.06-.21.1-.33.04-.21.06-.43.06-.65-.01-.05.03-.1.08-.11h2.59c.08 0 .12.03.13.08l3.65 10.3c.03.109 0 .16-.1.16zm3.4-.15c0 .11-.039.16-.129.16H16.01c-.1 0-.15-.061-.15-.16v-7.7c0-.1.041-.14.131-.14h1.98c.09 0 .129.05.129.14v7.7zm-.209-9.03c-.231.24-.571.37-.911.35-.33.01-.65-.12-.891-.35-.23-.25-.35-.58-.34-.92-.01-.34.12-.66.359-.89.242-.23.562-.35.892-.35.391 0 .689.12.91.35.22.24.34.56.33.89.01.34-.11.67-.349.92z" />
		</symbol>
		<symbol id="id" viewBox="0 0 24 24">
			<rect width="20" height="20" fill="#FF3366" x="2" y="2" />
			<path fill="#49021f" style="fill: #49021f"
				d="M4.25.3C1.9.3 0 2.2 0 4.55v14.9c0 2.35 1.9 4.25 4.25 4.25h15.5c2.35 0 4.25-1.9 4.25-4.25V4.55C24 2.2 22.1.3 19.75.3zm11.31 5.13h2.03c.05-.01.09.03.1.07v9.54c0 .18.01.38.02.6.02.21.03.41.04.58 0 .07-.03.13-.1.16-.52.22-1.07.38-1.63.48-.5.09-1.02.14-1.54.14-.74.01-1.48-.14-2.15-.45-.63-.29-1.15-.77-1.51-1.36-.37-.61-.55-1.37-.55-2.28-.01-.74.18-1.47.55-2.11.38-.65.93-1.19 1.59-1.55.7-.39 1.54-.58 2.53-.58.05 0 .12 0 .21.01s.19.01.31.02V5.54c0-.07.03-.11.1-.11zm-8.93.86h1.95c.06-.01.12.03.13.1.01.01.01.02.01.03v10.26c0 .11-.05.16-.14.16H6.62c-.09 0-.13-.05-.13-.16V6.42c0-.09.05-.13.14-.13zm8.23 4.24c-.39 0-.78.08-1.13.26-.34.17-.63.42-.85.74-.22.32-.33.75-.33 1.27-.01.35.05.7.17 1.03.1.27.25.51.45.71.19.18.42.32.68.4.27.09.55.13.83.13.15 0 .29-.01.42-.02.13.01.25-.01.36-.05v-4.4c-.09-.02-.18-.04-.27-.05-.11-.01-.22-.02-.33-.02z" />
		</symbol>
		<symbol id="ps" viewBox="0 0 24 24">
			<rect width="20" height="20" fill="#31A8FF" x="2" y="2" />
			<path fill="#001e36" style="fill: #001e36"
				d="M9.85 8.42c-.37-.15-.77-.21-1.18-.2-.26 0-.49 0-.68.01-.2-.01-.34 0-.41.01v3.36c.14.01.27.02.39.02h.53c.39 0 .78-.06 1.15-.18.32-.09.6-.28.82-.53.21-.25.31-.59.31-1.03.01-.31-.07-.62-.23-.89-.17-.26-.41-.46-.7-.57zM19.75.3H4.25C1.9.3 0 2.2 0 4.55v14.899c0 2.35 1.9 4.25 4.25 4.25h15.5c2.35 0 4.25-1.9 4.25-4.25V4.55C24 2.2 22.1.3 19.75.3zm-7.391 11.65c-.399.56-.959.98-1.609 1.22-.68.25-1.43.34-2.25.34-.24 0-.4 0-.5-.01s-.24-.01-.43-.01v3.209c.01.07-.04.131-.11.141H5.52c-.08 0-.12-.041-.12-.131V6.42c0-.07.03-.11.1-.11.17 0 .33 0 .56-.01.24-.01.49-.01.76-.02s.56-.01.87-.02c.31-.01.61-.01.91-.01.82 0 1.5.1 2.06.31.5.17.96.45 1.34.82.32.32.57.71.73 1.14.149.42.229.85.229 1.3.001.86-.199 1.57-.6 2.13zm7.091 3.89c-.28.4-.671.709-1.12.891-.49.209-1.09.318-1.811.318-.459 0-.91-.039-1.359-.129-.35-.061-.7-.17-1.02-.32-.07-.039-.121-.109-.111-.189v-1.74c0-.029.011-.07.041-.09.029-.02.06-.01.09.01.39.23.8.391 1.24.49.379.1.779.15 1.18.15.38 0 .65-.051.83-.141.16-.07.27-.24.27-.42 0-.141-.08-.27-.24-.4-.16-.129-.489-.279-.979-.471-.51-.18-.979-.42-1.42-.719-.31-.221-.569-.51-.761-.85-.159-.32-.239-.67-.229-1.021 0-.43.12-.84.341-1.21.25-.4.619-.72 1.049-.92.469-.239 1.059-.349 1.769-.349.41 0 .83.03 1.24.09.3.04.59.12.86.23.039.01.08.05.1.09.01.04.02.08.02.12v1.63c0 .04-.02.08-.05.1-.09.02-.14.02-.18 0-.3-.16-.62-.27-.96-.34-.37-.08-.74-.13-1.12-.13-.2-.01-.41.02-.601.07-.129.03-.24.1-.31.2-.05.08-.08.18-.08.27s.04.18.101.26c.09.11.209.2.34.27.229.12.47.23.709.33.541.18 1.061.43 1.541.73.33.209.6.49.789.83.16.318.24.67.23 1.029.011.471-.129.94-.389 1.331z" />
		</symbol>
		<symbol id="pr" viewBox="0 0 24 24">
			<rect width="20" height="20" fill="#9999FF" x="2" y="2" />
			<path fill="#00005b" style="fill: #00005b"
				d="M10.15 8.42a2.93 2.93 0 00-1.18-.2 13.9 13.9 0 00-1.09.02v3.36l.39.02h.53c.39 0 .78-.06 1.15-.18.32-.09.6-.28.82-.53.21-.25.31-.59.31-1.03a1.45 1.45 0 00-.93-1.46zM19.75.3H4.25A4.25 4.25 0 000 4.55v14.9c0 2.35 1.9 4.25 4.25 4.25h15.5c2.35 0 4.25-1.9 4.25-4.25V4.55C24 2.2 22.1.3 19.75.3zm-7.09 11.65c-.4.56-.96.98-1.61 1.22-.68.25-1.43.34-2.25.34l-.5-.01-.43-.01v3.21a.12.12 0 01-.11.14H5.82c-.08 0-.12-.04-.12-.13V6.42c0-.07.03-.11.1-.11l.56-.01.76-.02.87-.02.91-.01c.82 0 1.5.1 2.06.31.5.17.96.45 1.34.82.32.32.57.71.73 1.14.15.42.23.85.23 1.3 0 .86-.2 1.57-.6 2.13zm6.82-3.15v1.95c0 .08-.05.11-.16.11a4.35 4.35 0 00-1.92.37c-.19.09-.37.21-.51.37v5.1c0 .1-.04.14-.13.14h-1.97a.14.14 0 01-.16-.12v-5.58l-.01-.75-.02-.78c0-.23-.02-.45-.04-.68a.1.1 0 01.07-.11h1.78c.1 0 .18.07.2.16a3.03 3.03 0 01.13.92c.3-.35.67-.64 1.08-.86a3.1 3.1 0 011.52-.39c.07-.01.13.04.14.11v.04z" />
		</symbol>
		<symbol id="docker" viewBox="0 0 24 24">
			<path fill="#2496ED" style="fill: #2496ED"
				d="M13.983 11.078h2.119a.186.186 0 00.186-.185V9.006a.186.186 0 00-.186-.186h-2.119a.185.185 0 00-.185.185v1.888c0 .102.083.185.185.185m-2.954-5.43h2.118a.186.186 0 00.186-.186V3.574a.186.186 0 00-.186-.185h-2.118a.185.185 0 00-.185.185v1.888c0 .102.082.185.185.185m0 2.716h2.118a.187.187 0 00.186-.186V6.29a.186.186 0 00-.186-.185h-2.118a.185.185 0 00-.185.185v1.887c0 .102.082.185.185.186m-2.93 0h2.12a.186.186 0 00.184-.186V6.29a.185.185 0 00-.185-.185H8.1a.185.185 0 00-.185.185v1.887c0 .102.083.185.185.186m-2.964 0h2.119a.186.186 0 00.185-.186V6.29a.185.185 0 00-.185-.185H5.136a.186.186 0 00-.186.185v1.887c0 .102.084.185.186.186m5.893 2.715h2.118a.186.186 0 00.186-.185V9.006a.186.186 0 00-.186-.186h-2.118a.185.185 0 00-.185.185v1.888c0 .102.082.185.185.185m-2.93 0h2.12a.185.185 0 00.184-.185V9.006a.185.185 0 00-.184-.186h-2.12a.185.185 0 00-.184.185v1.888c0 .102.083.185.185.185m-2.964 0h2.119a.185.185 0 00.185-.185V9.006a.185.185 0 00-.184-.186h-2.12a.186.186 0 00-.186.186v1.887c0 .102.084.185.186.185m-2.92 0h2.12a.185.185 0 00.184-.185V9.006a.185.185 0 00-.184-.186h-2.12a.185.185 0 00-.184.185v1.888c0 .102.082.185.185.185M23.763 9.89c-.065-.051-.672-.51-1.954-.51-.338.001-.676.03-1.01.087-.248-1.7-1.653-2.53-1.716-2.566l-.344-.199-.226.327c-.284.438-.49.922-.612 1.43-.23.97-.09 1.882.403 2.661-.595.332-1.55.413-1.744.42H.751a.751.751 0 00-.75.748 11.376 11.376 0 00.692 4.062c.545 1.428 1.355 2.48 2.41 3.124 1.18.723 3.1 1.137 5.275 1.137.983.003 1.963-.086 2.93-.266a12.248 12.248 0 003.823-1.389c.98-.567 1.86-1.288 2.61-2.136 1.252-1.418 1.998-2.997 2.553-4.4h.221c1.372 0 2.215-.549 2.68-1.009.309-.293.55-.65.707-1.046l.098-.288Z" />
		</symbol>
		<symbol id="git" viewBox="0 0 24 24">
			<path fill="#f05032" style="fill: #f05032"
				d="M23.546 10.93L13.067.452c-.604-.603-1.582-.603-2.188 0L8.708 2.627l2.76 2.76c.645-.215 1.379-.07 1.889.441.516.515.658 1.258.438 1.9l2.658 2.66c.645-.223 1.387-.078 1.9.435.721.72.721 1.884 0 2.604-.719.719-1.881.719-2.6 0-.539-.541-.674-1.337-.404-1.996L12.86 8.955v6.525c.176.086.342.203.488.348.713.721.713 1.883 0 2.6-.719.721-1.889.721-2.609 0-.719-.719-.719-1.879 0-2.598.182-.18.387-.316.605-.406V8.835c-.217-.091-.424-.222-.6-.401-.545-.545-.676-1.342-.396-2.009L7.636 3.7.45 10.881c-.6.605-.6 1.584 0 2.189l10.48 10.477c.604.604 1.582.604 2.186 0l10.43-10.43c.605-.603.605-1.582 0-2.187" />
		</symbol>
		<symbol id="github" viewBox="0 0 24 24">
			<path fill="var(--black-white)" style="fill: var(--black-white)"
				d="M12 .297c-6.63 0-12 5.373-12 12 0 5.303 3.438 9.8 8.205 11.385.6.113.82-.258.82-.577 0-.285-.01-1.04-.015-2.04-3.338.724-4.042-1.61-4.042-1.61C4.422 18.07 3.633 17.7 3.633 17.7c-1.087-.744.084-.729.084-.729 1.205.084 1.838 1.236 1.838 1.236 1.07 1.835 2.809 1.305 3.495.998.108-.776.417-1.305.76-1.605-2.665-.3-5.466-1.332-5.466-5.93 0-1.31.465-2.38 1.235-3.22-.135-.303-.54-1.523.105-3.176 0 0 1.005-.322 3.3 1.23.96-.267 1.98-.399 3-.405 1.02.006 2.04.138 3 .405 2.28-1.552 3.285-1.23 3.285-1.23.645 1.653.24 2.873.12 3.176.765.84 1.23 1.91 1.23 3.22 0 4.61-2.805 5.625-5.475 5.92.42.36.81 1.096.81 2.22 0 1.606-.015 2.896-.015 3.286 0 .315.21.69.825.57C20.565 22.092 24 17.592 24 12.297c0-6.627-5.373-12-12-12" />
		</symbol>
		<symbol id="graphql" viewBox="0 0 24 24">
			<path fill="#e10098" style="fill: #e10098"
				d="M12.002 0a2.138 2.138 0 1 0 0 4.277 2.138 2.138 0 1 0 0-4.277zm8.54 4.931a2.138 2.138 0 1 0 0 4.277 2.138 2.138 0 1 0 0-4.277zm0 9.862a2.138 2.138 0 1 0 0 4.277 2.138 2.138 0 1 0 0-4.277zm-8.54 4.931a2.138 2.138 0 1 0 0 4.276 2.138 2.138 0 1 0 0-4.276zm-8.542-4.93a2.138 2.138 0 1 0 0 4.276 2.138 2.138 0 1 0 0-4.277zm0-9.863a2.138 2.138 0 1 0 0 4.277 2.138 2.138 0 1 0 0-4.277zm8.542-3.378L2.953 6.777v10.448l9.049 5.224 9.047-5.224V6.777zm0 1.601 7.66 13.27H4.34zm-1.387.371L3.97 15.037V7.363zm2.774 0 6.646 3.838v7.674zM5.355 17.44h13.293l-6.646 3.836z" />
		</symbol>
		<symbol id="linux" viewBox="0 0 24 24">
			<path fill="var(--black-white)" style="fill: var(--black-white)"
				d="M12.504 0c-.155 0-.315.008-.48.021-4.226.333-3.105 4.807-3.17 6.298-.076 1.092-.3 1.953-1.05 3.02-.885 1.051-2.127 2.75-2.716 4.521-.278.832-.41 1.684-.287 2.489a.424.424 0 00-.11.135c-.26.268-.45.6-.663.839-.199.199-.485.267-.797.4-.313.136-.658.269-.864.68-.09.189-.136.394-.132.602 0 .199.027.4.055.536.058.399.116.728.04.97-.249.68-.28 1.145-.106 1.484.174.334.535.47.94.601.81.2 1.91.135 2.774.6.926.466 1.866.67 2.616.47.526-.116.97-.464 1.208-.946.587-.003 1.23-.269 2.26-.334.699-.058 1.574.267 2.577.2.025.134.063.198.114.333l.003.003c.391.778 1.113 1.132 1.884 1.071.771-.06 1.592-.536 2.257-1.306.631-.765 1.683-1.084 2.378-1.503.348-.199.629-.469.649-.853.023-.4-.2-.811-.714-1.376v-.097l-.003-.003c-.17-.2-.25-.535-.338-.926-.085-.401-.182-.786-.492-1.046h-.003c-.059-.054-.123-.067-.188-.135a.357.357 0 00-.19-.064c.431-1.278.264-2.55-.173-3.694-.533-1.41-1.465-2.638-2.175-3.483-.796-1.005-1.576-1.957-1.56-3.368.026-2.152.236-6.133-3.544-6.139zm.529 3.405h.013c.213 0 .396.062.584.198.19.135.33.332.438.533.105.259.158.459.166.724 0-.02.006-.04.006-.06v.105a.086.086 0 01-.004-.021l-.004-.024a1.807 1.807 0 01-.15.706.953.953 0 01-.213.335.71.71 0 00-.088-.042c-.104-.045-.198-.064-.284-.133a1.312 1.312 0 00-.22-.066c.05-.06.146-.133.183-.198.053-.128.082-.264.088-.402v-.02a1.21 1.21 0 00-.061-.4c-.045-.134-.101-.2-.183-.333-.084-.066-.167-.132-.267-.132h-.016c-.093 0-.176.03-.262.132a.8.8 0 00-.205.334 1.18 1.18 0 00-.09.4v.019c.002.089.008.179.02.267-.193-.067-.438-.135-.607-.202a1.635 1.635 0 01-.018-.2v-.02a1.772 1.772 0 01.15-.768c.082-.22.232-.406.43-.533a.985.985 0 01.594-.2zm-2.962.059h.036c.142 0 .27.048.399.135.146.129.264.288.344.465.09.199.14.4.153.667v.004c.007.134.006.2-.002.266v.08c-.03.007-.056.018-.083.024-.152.055-.274.135-.393.2.012-.09.013-.18.003-.267v-.015c-.012-.133-.04-.2-.082-.333a.613.613 0 00-.166-.267.248.248 0 00-.183-.064h-.021c-.071.006-.13.04-.186.132a.552.552 0 00-.12.27.944.944 0 00-.023.33v.015c.012.135.037.2.08.334.046.134.098.2.166.268.01.009.02.018.034.024-.07.057-.117.07-.176.136a.304.304 0 01-.131.068 2.62 2.62 0 01-.275-.402 1.772 1.772 0 01-.155-.667 1.759 1.759 0 01.08-.668 1.43 1.43 0 01.283-.535c.128-.133.26-.2.418-.2zm1.37 1.706c.332 0 .733.065 1.216.399.293.2.523.269 1.052.468h.003c.255.136.405.266.478.399v-.131a.571.571 0 01.016.47c-.123.31-.516.643-1.063.842v.002c-.268.135-.501.333-.775.465-.276.135-.588.292-1.012.267a1.139 1.139 0 01-.448-.067 3.566 3.566 0 01-.322-.198c-.195-.135-.363-.332-.612-.465v-.005h-.005c-.4-.246-.616-.512-.686-.71-.07-.268-.005-.47.193-.6.224-.135.38-.271.483-.336.104-.074.143-.102.176-.131h.002v-.003c.169-.202.436-.47.839-.601.139-.036.294-.065.466-.065zm2.8 2.142c.358 1.417 1.196 3.475 1.735 4.473.286.534.855 1.659 1.102 3.024.156-.005.33.018.513.064.646-1.671-.546-3.467-1.089-3.966-.22-.2-.232-.335-.123-.335.59.534 1.365 1.572 1.646 2.757.13.535.16 1.104.021 1.67.067.028.135.06.205.067 1.032.534 1.413.938 1.23 1.537v-.043c-.06-.003-.12 0-.18 0h-.016c.151-.467-.182-.825-1.065-1.224-.915-.4-1.646-.336-1.77.465-.008.043-.013.066-.018.135-.068.023-.139.053-.209.064-.43.268-.662.669-.793 1.187-.13.533-.17 1.156-.205 1.869v.003c-.02.334-.17.838-.319 1.35-1.5 1.072-3.58 1.538-5.348.334a2.645 2.645 0 00-.402-.533 1.45 1.45 0 00-.275-.333c.182 0 .338-.03.465-.067a.615.615 0 00.314-.334c.108-.267 0-.697-.345-1.163-.345-.467-.931-.995-1.788-1.521-.63-.4-.986-.87-1.15-1.396-.165-.534-.143-1.085-.015-1.645.245-1.07.873-2.11 1.274-2.763.107-.065.037.135-.408.974-.396.751-1.14 2.497-.122 3.854a8.123 8.123 0 01.647-2.876c.564-1.278 1.743-3.504 1.836-5.268.048.036.217.135.289.202.218.133.38.333.59.465.21.201.477.335.876.335.039.003.075.006.11.006.412 0 .73-.134.997-.268.29-.134.52-.334.74-.4h.005c.467-.135.835-.402 1.044-.7zm2.185 8.958c.037.6.343 1.245.882 1.377.588.134 1.434-.333 1.791-.765l.211-.01c.315-.007.577.01.847.268l.003.003c.208.199.305.53.391.876.085.4.154.78.409 1.066.486.527.645.906.636 1.14l.003-.007v.018l-.003-.012c-.015.262-.185.396-.498.595-.63.401-1.746.712-2.457 1.57-.618.737-1.37 1.14-2.036 1.191-.664.053-1.237-.2-1.574-.898l-.005-.003c-.21-.4-.12-1.025.056-1.69.176-.668.428-1.344.463-1.897.037-.714.076-1.335.195-1.814.12-.465.308-.797.641-.984l.045-.022zm-10.814.049h.01c.053 0 .105.005.157.014.376.055.706.333 1.023.752l.91 1.664.003.003c.243.533.754 1.064 1.189 1.637.434.598.77 1.131.729 1.57v.006c-.057.744-.48 1.148-1.125 1.294-.645.135-1.52.002-2.395-.464-.968-.536-2.118-.469-2.857-.602-.369-.066-.61-.2-.723-.4-.11-.2-.113-.602.123-1.23v-.004l.002-.003c.117-.334.03-.752-.027-1.118-.055-.401-.083-.71.043-.94.16-.334.396-.4.69-.533.294-.135.64-.202.915-.47h.002v-.002c.256-.268.445-.601.668-.838.19-.201.38-.336.663-.336zm7.159-9.074c-.435.201-.945.535-1.488.535-.542 0-.97-.267-1.28-.466-.154-.134-.28-.268-.373-.335-.164-.134-.144-.333-.074-.333.109.016.129.134.199.2.096.066.215.2.36.333.292.2.68.467 1.167.467.485 0 1.053-.267 1.398-.466.195-.135.445-.334.648-.467.156-.136.149-.267.279-.267.128.016.034.134-.147.332a8.097 8.097 0 01-.69.468zm-1.082-1.583V5.64c-.006-.02.013-.042.029-.05.074-.043.18-.027.26.004.063 0 .16.067.15.135-.006.049-.085.066-.135.066-.055 0-.092-.043-.141-.068-.052-.018-.146-.008-.163-.065zm-.551 0c-.02.058-.113.049-.166.066-.047.025-.086.068-.14.068-.05 0-.13-.02-.136-.068-.01-.066.088-.133.15-.133.08-.031.184-.047.259-.005.019.009.036.03.03.05v.02h.003z" />
		</symbol>
		<symbol id="netlify" viewBox="0 0 24 24">
			<path fill="#00C7B7" style="fill: #00C7B7"
				d="M6.49 19.04h-.23L5.13 17.9v-.23l1.73-1.71h1.2l.15.15v1.2L6.5 19.04ZM5.13 6.31V6.1l1.13-1.13h.23L8.2 6.68v1.2l-.15.15h-1.2L5.13 6.31Zm9.96 9.09h-1.65l-.14-.13v-3.83c0-.68-.27-1.2-1.1-1.23-.42 0-.9 0-1.43.02l-.07.08v4.96l-.14.14H8.9l-.13-.14V8.73l.13-.14h3.7a2.6 2.6 0 0 1 2.61 2.6v4.08l-.13.14Zm-8.37-2.44H.14L0 12.82v-1.64l.14-.14h6.58l.14.14v1.64l-.14.14Zm17.14 0h-6.58l-.14-.14v-1.64l.14-.14h6.58l.14.14v1.64l-.14.14ZM11.05 6.55V1.64l.14-.14h1.65l.14.14v4.9l-.14.14h-1.65l-.14-.13Zm0 15.81v-4.9l.14-.14h1.65l.14.13v4.91l-.14.14h-1.65l-.14-.14Z" />
		</symbol>
		<symbol id="nodejs" viewBox="0 0 24 24">
			<path fill="#5FA04E" style="fill: #5FA04E"
				d="M11.998,24c-0.321,0-0.641-0.084-0.922-0.247l-2.936-1.737c-0.438-0.245-0.224-0.332-0.08-0.383 c0.585-0.203,0.703-0.25,1.328-0.604c0.065-0.037,0.151-0.023,0.218,0.017l2.256,1.339c0.082,0.045,0.197,0.045,0.272,0l8.795-5.076 c0.082-0.047,0.134-0.141,0.134-0.238V6.921c0-0.099-0.053-0.192-0.137-0.242l-8.791-5.072c-0.081-0.047-0.189-0.047-0.271,0 L3.075,6.68C2.99,6.729,2.936,6.825,2.936,6.921v10.15c0,0.097,0.054,0.189,0.139,0.235l2.409,1.392 c1.307,0.654,2.108-0.116,2.108-0.89V7.787c0-0.142,0.114-0.253,0.256-0.253h1.115c0.139,0,0.255,0.112,0.255,0.253v10.021 c0,1.745-0.95,2.745-2.604,2.745c-0.508,0-0.909,0-2.026-0.551L2.28,18.675c-0.57-0.329-0.922-0.945-0.922-1.604V6.921 c0-0.659,0.353-1.275,0.922-1.603l8.795-5.082c0.557-0.315,1.296-0.315,1.848,0l8.794,5.082c0.57,0.329,0.924,0.944,0.924,1.603 v10.15c0,0.659-0.354,1.273-0.924,1.604l-8.794,5.078C12.643,23.916,12.324,24,11.998,24z M19.099,13.993 c0-1.9-1.284-2.406-3.987-2.763c-2.731-0.361-3.009-0.548-3.009-1.187c0-0.528,0.235-1.233,2.258-1.233 c1.807,0,2.473,0.389,2.747,1.607c0.024,0.115,0.129,0.199,0.247,0.199h1.141c0.071,0,0.138-0.031,0.186-0.081 c0.048-0.054,0.074-0.123,0.067-0.196c-0.177-2.098-1.571-3.076-4.388-3.076c-2.508,0-4.004,1.058-4.004,2.833 c0,1.925,1.488,2.457,3.895,2.695c2.88,0.282,3.103,0.703,3.103,1.269c0,0.983-0.789,1.402-2.642,1.402 c-2.327,0-2.839-0.584-3.011-1.742c-0.02-0.124-0.126-0.215-0.253-0.215h-1.137c-0.141,0-0.254,0.112-0.254,0.253 c0,1.482,0.806,3.248,4.655,3.248C17.501,17.007,19.099,15.91,19.099,13.993z" />
		</symbol>
		<symbol id="react" viewBox="0 0 24 24">
			<path fill="#61dafb" style="fill: #61dafb"
				d="M14.23 12.004a2.236 2.236 0 0 1-2.235 2.236 2.236 2.236 0 0 1-2.236-2.236 2.236 2.236 0 0 1 2.235-2.236 2.236 2.236 0 0 1 2.236 2.236zm2.648-10.69c-1.346 0-3.107.96-4.888 2.622-1.78-1.653-3.542-2.602-4.887-2.602-.41 0-.783.093-1.106.278-1.375.793-1.683 3.264-.973 6.365C1.98 8.917 0 10.42 0 12.004c0 1.59 1.99 3.097 5.043 4.03-.704 3.113-.39 5.588.988 6.38.32.187.69.275 1.102.275 1.345 0 3.107-.96 4.888-2.624 1.78 1.654 3.542 2.603 4.887 2.603.41 0 .783-.09 1.106-.275 1.374-.792 1.683-3.263.973-6.365C22.02 15.096 24 13.59 24 12.004c0-1.59-1.99-3.097-5.043-4.032.704-3.11.39-5.587-.988-6.38-.318-.184-.688-.277-1.092-.278zm-.005 1.09v.006c.225 0 .406.044.558.127.666.382.955 1.835.73 3.704-.054.46-.142.945-.25 1.44-.96-.236-2.006-.417-3.107-.534-.66-.905-1.345-1.727-2.035-2.447 1.592-1.48 3.087-2.292 4.105-2.295zm-9.77.02c1.012 0 2.514.808 4.11 2.28-.686.72-1.37 1.537-2.02 2.442-1.107.117-2.154.298-3.113.538-.112-.49-.195-.964-.254-1.42-.23-1.868.054-3.32.714-3.707.19-.09.4-.127.563-.132zm4.882 3.05c.455.468.91.992 1.36 1.564-.44-.02-.89-.034-1.345-.034-.46 0-.915.01-1.36.034.44-.572.895-1.096 1.345-1.565zM12 8.1c.74 0 1.477.034 2.202.093.406.582.802 1.203 1.183 1.86.372.64.71 1.29 1.018 1.946-.308.655-.646 1.31-1.013 1.95-.38.66-.773 1.288-1.18 1.87-.728.063-1.466.098-2.21.098-.74 0-1.477-.035-2.202-.093-.406-.582-.802-1.204-1.183-1.86-.372-.64-.71-1.29-1.018-1.946.303-.657.646-1.313 1.013-1.954.38-.66.773-1.286 1.18-1.868.728-.064 1.466-.098 2.21-.098zm-3.635.254c-.24.377-.48.763-.704 1.16-.225.39-.435.782-.635 1.174-.265-.656-.49-1.31-.676-1.947.64-.15 1.315-.283 2.015-.386zm7.26 0c.695.103 1.365.23 2.006.387-.18.632-.405 1.282-.66 1.933-.2-.39-.41-.783-.64-1.174-.225-.392-.465-.774-.705-1.146zm3.063.675c.484.15.944.317 1.375.498 1.732.74 2.852 1.708 2.852 2.476-.005.768-1.125 1.74-2.857 2.475-.42.18-.88.342-1.355.493-.28-.958-.646-1.956-1.1-2.98.45-1.017.81-2.01 1.085-2.964zm-13.395.004c.278.96.645 1.957 1.1 2.98-.45 1.017-.812 2.01-1.086 2.964-.484-.15-.944-.318-1.37-.5-1.732-.737-2.852-1.706-2.852-2.474 0-.768 1.12-1.742 2.852-2.476.42-.18.88-.342 1.356-.494zm11.678 4.28c.265.657.49 1.312.676 1.948-.64.157-1.316.29-2.016.39.24-.375.48-.762.705-1.158.225-.39.435-.788.636-1.18zm-9.945.02c.2.392.41.783.64 1.175.23.39.465.772.705 1.143-.695-.102-1.365-.23-2.006-.386.18-.63.406-1.282.66-1.933zM17.92 16.32c.112.493.2.968.254 1.423.23 1.868-.054 3.32-.714 3.708-.147.09-.338.128-.563.128-1.012 0-2.514-.807-4.11-2.28.686-.72 1.37-1.536 2.02-2.44 1.107-.118 2.154-.3 3.113-.54zm-11.83.01c.96.234 2.006.415 3.107.532.66.905 1.345 1.727 2.035 2.446-1.595 1.483-3.092 2.295-4.11 2.295-.22-.005-.406-.05-.553-.132-.666-.38-.955-1.834-.73-3.703.054-.46.142-.944.25-1.438zm4.56.64c.44.02.89.034 1.345.034.46 0 .915-.01 1.36-.034-.44.572-.895 1.095-1.345 1.565-.455-.47-.91-.993-1.36-1.565z" />
		</symbol>
		<symbol id="terraform" viewBox="0 0 24 24">
			<path fill="#844FBA" style="fill: #844FBA"
				d="M1.44 0v7.575l6.561 3.79V3.787zm21.12 4.227l-6.561 3.791v7.574l6.56-3.787zM8.72 4.23v7.575l6.561 3.787V8.018zm0 8.405v7.575L15.28 24v-7.578z" />
		</symbol>
		<symbol id="vuejs" viewBox="0 0 24 24">
			<path fill="#4fc08d" style="fill: #4fc08d"
				d="M24,1.61H14.06L12,5.16,9.94,1.61H0L12,22.39ZM12,14.08,5.16,2.23H9.59L12,6.41l2.41-4.18h4.43Z" />
		</symbol>
		<symbol id="svelte" viewBox="0 0 24 24">
			<path fill="#FF3E00" style="fill: #FF3E00"
				d="M10.354 21.125a4.44 4.44 0 0 1-4.765-1.767 4.109 4.109 0 0 1-.703-3.107 3.898 3.898 0 0 1 .134-.522l.105-.321.287.21a7.21 7.21 0 0 0 2.186 1.092l.208.063-.02.208a1.253 1.253 0 0 0 .226.83 1.337 1.337 0 0 0 1.435.533 1.231 1.231 0 0 0 .343-.15l5.59-3.562a1.164 1.164 0 0 0 .524-.778 1.242 1.242 0 0 0-.211-.937 1.338 1.338 0 0 0-1.435-.533 1.23 1.23 0 0 0-.343.15l-2.133 1.36a4.078 4.078 0 0 1-1.135.499 4.44 4.44 0 0 1-4.765-1.766 4.108 4.108 0 0 1-.702-3.108 3.855 3.855 0 0 1 1.742-2.582l5.589-3.563a4.072 4.072 0 0 1 1.135-.499 4.44 4.44 0 0 1 4.765 1.767 4.109 4.109 0 0 1 .703 3.107 3.943 3.943 0 0 1-.134.522l-.105.321-.286-.21a7.204 7.204 0 0 0-2.187-1.093l-.208-.063.02-.207a1.255 1.255 0 0 0-.226-.831 1.337 1.337 0 0 0-1.435-.532 1.231 1.231 0 0 0-.343.15L8.62 9.368a1.162 1.162 0 0 0-.524.778 1.24 1.24 0 0 0 .211.937 1.338 1.338 0 0 0 1.435.533 1.235 1.235 0 0 0 .344-.151l2.132-1.36a4.067 4.067 0 0 1 1.135-.498 4.44 4.44 0 0 1 4.765 1.766 4.108 4.108 0 0 1 .702 3.108 3.857 3.857 0 0 1-1.742 2.583l-5.589 3.562a4.072 4.072 0 0 1-1.135.499m10.358-17.95C18.484-.015 14.082-.96 10.9 1.068L5.31 4.63a6.412 6.412 0 0 0-2.896 4.295 6.753 6.753 0 0 0 .666 4.336 6.43 6.43 0 0 0-.96 2.396 6.833 6.833 0 0 0 1.168 5.167c2.229 3.19 6.63 4.135 9.812 2.108l5.59-3.562a6.41 6.41 0 0 0 2.896-4.295 6.756 6.756 0 0 0-.665-4.336 6.429 6.429 0 0 0 .958-2.396 6.831 6.831 0 0 0-1.167-5.168Z" />
		</symbol>
	</defs>
</svg>