<svg aria-hidden="true" style="position: absolute; width: 0; height: 0; overflow: hidden;"
    version="1.1"
    xmlns="http://www.w3.org/2000/svg"
    xmlns:xlink="http://www.w3.org/1999/xlink">
    <defs>
        <symbol id="linkedin" viewBox="0 0 24 24">
            <path
                d="M20.447 20.452h-3.554v-5.569c0-1.328-.027-3.037-1.852-3.037-1.853 0-2.136 1.445-2.136 2.939v5.667H9.351V9h3.414v1.561h.046c.477-.9 1.637-1.85 3.37-1.85 3.601 0 4.267 2.37 4.267 5.455v6.286zM5.337 7.433c-1.144 0-2.063-.926-2.063-2.065 0-1.138.92-2.063 2.063-2.063 1.14 0 2.064.925 2.064 2.063 0 1.139-.925 2.065-2.064 2.065zm1.782 13.019H3.555V9h3.564v11.452zM22.225 0H1.771C.792 0 0 .774 0 1.729v20.542C0 23.227.792 24 1.771 24h20.451C23.2 24 24 23.227 24 22.271V1.729C24 .774 23.2 0 22.222 0h.003z" />
        </symbol>
        <symbol id="discord" viewBox="0 0 24 24">
            <path
                d="M20.317 4.3698a19.7913 19.7913 0 00-4.8851-1.5152.0741.0741 0 00-.0785.0371c-.211.3753-.4447.8648-.6083 1.2495-1.8447-.2762-3.68-.2762-5.4868 0-.1636-.3933-.4058-.8742-.6177-1.2495a.077.077 0 00-.0785-.037 19.7363 19.7363 0 00-4.8852 1.515.0699.0699 0 00-.0321.0277C.5334 9.0458-.319 13.5799.0992 18.0578a.0824.0824 0 00.0312.0561c2.0528 1.5076 4.0413 2.4228 5.9929 3.0294a.0777.0777 0 00.0842-.0276c.4616-.6304.8731-1.2952 1.226-1.9942a.076.076 0 00-.0416-.1057c-.6528-.2476-1.2743-.5495-1.8722-.8923a.077.077 0 01-.0076-.1277c.1258-.0943.2517-.1923.3718-.2914a.0743.0743 0 01.0776-.0105c3.9278 1.7933 8.18 1.7933 12.0614 0a.0739.0739 0 01.0785.0095c.1202.099.246.1981.3728.2924a.077.077 0 01-.0066.1276 12.2986 12.2986 0 01-1.873.8914.0766.0766 0 00-.0407.1067c.3604.698.7719 1.3628 1.225 1.9932a.076.076 0 00.0842.0286c1.961-.6067 3.9495-1.5219 6.0023-3.0294a.077.077 0 00.0313-.0552c.5004-5.177-.8382-9.6739-3.5485-13.6604a.061.061 0 00-.0312-.0286zM8.02 15.3312c-1.1825 0-2.1569-1.0857-2.1569-2.419 0-1.3332.9555-2.4189 2.157-2.4189 1.2108 0 2.1757 1.0952 2.1568 2.419 0 1.3332-.9555 2.4189-2.1569 2.4189zm7.9748 0c-1.1825 0-2.1569-1.0857-2.1569-2.419 0-1.3332.9554-2.4189 2.1569-2.4189 1.2108 0 2.1757 1.0952 2.1568 2.419 0 1.3332-.946 2.4189-2.1568 2.4189Z" />
        </symbol>
        <symbol id="github" viewBox="0 0 24 24">
            <path
                d="M12 .297c-6.63 0-12 5.373-12 12 0 5.303 3.438 9.8 8.205 11.385.6.113.82-.258.82-.577 0-.285-.01-1.04-.015-2.04-3.338.724-4.042-1.61-4.042-1.61C4.422 18.07 3.633 17.7 3.633 17.7c-1.087-.744.084-.729.084-.729 1.205.084 1.838 1.236 1.838 1.236 1.07 1.835 2.809 1.305 3.495.998.108-.776.417-1.305.76-1.605-2.665-.3-5.466-1.332-5.466-5.93 0-1.31.465-2.38 1.235-3.22-.135-.303-.54-1.523.105-3.176 0 0 1.005-.322 3.3 1.23.96-.267 1.98-.399 3-.405 1.02.006 2.04.138 3 .405 2.28-1.552 3.285-1.23 3.285-1.23.645 1.653.24 2.873.12 3.176.765.84 1.23 1.91 1.23 3.22 0 4.61-2.805 5.625-5.475 5.92.42.36.81 1.096.81 2.22 0 1.606-.015 2.896-.015 3.286 0 .315.21.69.825.57C20.565 22.092 24 17.592 24 12.297c0-6.627-5.373-12-12-12" />
        </symbol>
        <symbol id="twitter" viewBox="0 0 24 24">
            <path
                d="M21.543 7.104c.015.211.015.423.015.636 0 6.507-4.954 14.01-14.01 14.01v-.003A13.94 13.94 0 0 1 0 19.539a9.88 9.88 0 0 0 7.287-2.041 4.93 4.93 0 0 1-4.6-3.42 4.916 4.916 0 0 0 2.223-.084A4.926 4.926 0 0 1 .96 9.167v-.062a4.887 4.887 0 0 0 2.235.616A4.928 4.928 0 0 1 1.67 3.148 13.98 13.98 0 0 0 11.82 8.292a4.929 4.929 0 0 1 8.39-4.49 9.868 9.868 0 0 0 3.128-1.196 4.941 4.941 0 0 1-2.165 2.724A9.828 9.828 0 0 0 24 4.555a10.019 10.019 0 0 1-2.457 2.549z" />
        </symbol>
        <symbol id="spotify" viewBox="0 0 24 24">
            <path
                d="M12 0C5.4 0 0 5.4 0 12s5.4 12 12 12 12-5.4 12-12S18.66 0 12 0zm5.521 17.34c-.24.359-.66.48-1.021.24-2.82-1.74-6.36-2.101-10.561-1.141-.418.122-.779-.179-.899-.539-.12-.421.18-.78.54-.9 4.56-1.021 8.52-.6 11.64 1.32.42.18.479.659.301 1.02zm1.44-3.3c-.301.42-.841.6-1.262.3-3.239-1.98-8.159-2.58-11.939-1.38-.479.12-1.02-.12-1.14-.6-.12-.48.12-1.021.6-1.141C9.6 9.9 15 10.561 18.72 12.84c.361.181.54.78.241 1.2zm.12-3.36C15.24 8.4 8.82 8.16 5.16 9.301c-.6.179-1.2-.181-1.38-.721-.18-.601.18-1.2.72-1.381 4.26-1.26 11.28-1.02 15.721 1.621.539.3.719 1.02.419 1.56-.299.421-1.02.599-1.559.3z" />
        </symbol>
        <symbol id="lastfm" viewBox="0 0 24 24">
            <path
                d="M10.584 17.21l-.88-2.392s-1.43 1.594-3.573 1.594c-1.897 0-3.244-1.649-3.244-4.288 0-3.382 1.704-4.591 3.381-4.591 2.42 0 3.189 1.567 3.849 3.574l.88 2.749c.88 2.666 2.529 4.81 7.285 4.81 3.409 0 5.718-1.044 5.718-3.793 0-2.227-1.265-3.381-3.63-3.931l-1.758-.385c-1.21-.275-1.567-.77-1.567-1.595 0-.934.742-1.484 1.952-1.484 1.32 0 2.034.495 2.144 1.677l2.749-.33c-.22-2.474-1.924-3.492-4.729-3.492-2.474 0-4.893.935-4.893 3.932 0 1.87.907 3.051 3.189 3.601l1.87.44c1.402.33 1.869.907 1.869 1.704 0 1.017-.99 1.43-2.86 1.43-2.776 0-3.93-1.457-4.59-3.464l-.907-2.75c-1.155-3.573-2.997-4.893-6.653-4.893C2.144 5.333 0 7.89 0 12.233c0 4.18 2.144 6.434 5.993 6.434 3.106 0 4.591-1.457 4.591-1.457z" />
        </symbol>
        <symbol id="tvtime" viewBox="0 0 24 24">
            <path d="M0 0v24h24V0zm4.8 4.8h14.4v4.8h-4.8v9.6H9.6V9.6H4.8Z" />
        </symbol>
        <symbol id="paypal" viewBox="0 0 24 24">
            <path d="M7.076 21.337H2.47a.641.641 0 0 1-.633-.74L4.944.901C5.026.382 5.474 0 5.998 0h7.46c2.57 0 4.578.543 5.69 1.81 1.01 1.15 1.304 2.42 1.012 4.287-.023.143-.047.288-.077.437-.983 5.05-4.349 6.797-8.647 6.797h-2.19c-.524 0-.968.382-1.05.9l-1.12 7.106zm14.146-14.42a3.35 3.35 0 0 0-.607-.541c-.013.076-.026.175-.041.254-.93 4.778-4.005 7.201-9.138 7.201h-2.19a.563.563 0 0 0-.556.479l-1.187 7.527h-.506l-.24 1.516a.56.56 0 0 0 .554.647h3.882c.46 0 .85-.334.922-.788.06-.26.76-4.852.816-5.09a.932.932 0 0 1 .923-.788h.58c3.76 0 6.705-1.528 7.565-5.946.36-1.847.174-3.388-.777-4.471z" />        </symbol>
        <symbol id="message" viewBox="0 0 24 24">
            <path
                d="M7.2 11.8C7.54 11.8 7.825 11.685 8.055 11.455C8.285 11.225 8.4 10.94 8.4 10.6C8.4 10.26 8.285 9.97501 8.055 9.74501C7.825 9.51501 7.54 9.40001 7.2 9.40001C6.86 9.40001 6.575 9.51501 6.345 9.74501C6.115 9.97501 6 10.26 6 10.6C6 10.94 6.115 11.225 6.345 11.455C6.575 11.685 6.86 11.8 7.2 11.8ZM12 11.8C12.34 11.8 12.625 11.685 12.855 11.455C13.085 11.225 13.2 10.94 13.2 10.6C13.2 10.26 13.085 9.97501 12.855 9.74501C12.625 9.51501 12.34 9.40001 12 9.40001C11.66 9.40001 11.375 9.51501 11.145 9.74501C10.915 9.97501 10.8 10.26 10.8 10.6C10.8 10.94 10.915 11.225 11.145 11.455C11.375 11.685 11.66 11.8 12 11.8ZM16.8 11.8C17.14 11.8 17.425 11.685 17.655 11.455C17.885 11.225 18 10.94 18 10.6C18 10.26 17.885 9.97501 17.655 9.74501C17.425 9.51501 17.14 9.40001 16.8 9.40001C16.46 9.40001 16.175 9.51501 15.945 9.74501C15.715 9.97501 15.6 10.26 15.6 10.6C15.6 10.94 15.715 11.225 15.945 11.455C16.175 11.685 16.46 11.8 16.8 11.8ZM0 22.09V3.4C0 2.74 0.235 2.175 0.705 1.705C1.175 1.235 1.74 1 2.4 1H21.6C22.26 1 22.825 1.235 23.295 1.705C23.765 2.175 24 2.74 24 3.4V17.8C24 18.46 23.765 19.025 23.295 19.495C22.825 19.965 22.26 20.2 21.6 20.2H4.8L2.04 22.96C1.66 23.34 1.225 23.425 0.735 23.215C0.245 23.005 0 22.63 0 22.09Z" />
        </symbol>
    </defs>
</svg>